<svg width="208" height="48" version="1.1" viewBox="0 0 55.033 12.7" xmlns="http://www.w3.org/2000/svg">
<path d="m45.33 7.799c-0.65269-0.61964-1.3474-1.1289-1.959-1.4361-0.18299-0.091901-0.34113-0.16709-0.35142-0.16709-0.0103 0-0.02343 0.2579-0.02919 0.57311l-0.01047 0.57311-0.53067 0.19932c-0.29187 0.10963-0.53598 0.18548-0.54247 0.16856-0.0065-0.016919 7e-3 -0.15556 0.03009-0.30809 0.06625-0.43858 0.09166-1.8831 0.04249-2.4153-0.0503-0.54458-0.10735-0.70019-0.36162-0.9865-0.0984-0.11079-0.16478-0.21555-0.14751-0.23279 0.03301-0.032961 0.90019-0.19989 1.2728-0.24501l0.21795-0.026391v0.11808c0 0.091005 0.01662 0.11808 0.07249 0.11808 0.03987 0 0.48512-0.093526 0.98945-0.20784l0.91697-0.20784 0.07397 0.084645c0.11937 0.1366 0.29718 0.52967 0.29721 0.65704 0 0.42207-0.36202 0.82684-1.0645 1.1898l-0.33632 0.1738 0.24796 0.29706c0.36355 0.43554 0.86218 1.1041 1.2843 1.7219 0.36239 0.53043 0.36964 0.54523 0.30002 0.6129-0.06941 0.067464-0.08059 0.060564-0.41249-0.25453zm-2.0446-2.4588c0.6055-0.28645 0.99371-0.97663 0.72503-1.289-0.07672-0.089193-0.11484-0.10168-0.3052-0.099971-0.11963 0.00108-0.33838 0.02234-0.4861 0.047256l-0.26858 0.045301 0.02415 0.28571c0.01327 0.15714 0.02415 0.47076 0.02415 0.69694 0 0.26487 0.01432 0.41124 0.04025 0.41124 0.02214 0 0.13297-0.043863 0.2463-0.097473zm9.7014 2.4588c-0.65269-0.61964-1.3474-1.1289-1.959-1.4361-0.18299-0.091901-0.34112-0.16709-0.35142-0.16709s-0.02343 0.2579-0.02919 0.57311l-0.01047 0.57311-0.53067 0.19932c-0.29187 0.10963-0.53598 0.18548-0.54247 0.16856-0.0065-0.016919 0.0073-0.15556 0.03062-0.30809 0.06116-0.3998 0.09791-2.1536 0.04512-2.1536-0.07831 0-1.7223 0.34576-2.0866 0.43885-0.50056 0.12791-1.4457 0.43332-1.4457 0.46716 0 0.066707 0.36756 0.38628 0.56583 0.49195 0.6808 0.36286 1.419 0.28627 2.3178-0.24051 0.12577-0.073711 0.24297-0.13402 0.26044-0.13402 0.01748 0 0.0436 0.046907 0.05806 0.10424 0.03122 0.12377-0.06729 0.22052-0.58451 0.5741-1.0814 0.73928-2.0464 0.9145-2.7278 0.49528-0.43283-0.26632-0.68497-0.73133-0.78025-1.439-0.01962-0.14574-0.04753-0.18915-0.1917-0.29819-0.0928-0.07019-0.16873-0.14268-0.16873-0.1611 0-0.018414 0.05849-0.033478 0.12996-0.033478 0.15394 0 0.24909-0.082197 0.24909-0.21519 0-0.18342 0.1211-0.56347 0.2723-0.85462 0.55903-1.0764 1.792-1.4302 2.9194-0.83774 0.25236 0.13261 0.67865 0.47721 0.63672 0.51471-0.09407 0.084133-0.91752 0.67265-0.94117 0.67265-0.01696 0-0.14901-0.094701-0.29346-0.21045-0.56359-0.45162-1.1343-0.63762-1.5128-0.49306-0.2149 0.082071-0.4203 0.31753-0.49426 0.56658-0.06331 0.2132-0.07545 0.689-0.01848 0.72422 0.02064 0.012756 0.23812 0.00561 0.48329-0.015884 0.51174-0.044863 1.5998-0.10174 2.6454-0.13828l0.72136-0.02521-0.02995-0.34146c-0.035763-0.40755-0.11016-0.5908-0.34904-0.85978-0.098399-0.11079-0.16478-0.21555-0.14751-0.23279 0.03301-0.032961 0.9002-0.19989 1.2728-0.24501l0.21795-0.026391v0.11808c0 0.091005 0.01662 0.11808 0.07249 0.11808 0.03987 0 0.48512-0.093526 0.98945-0.20784l0.91697-0.20784 0.07397 0.084645c0.11937 0.1366 0.29718 0.52967 0.29721 0.65704 0 0.42207-0.36202 0.82684-1.0645 1.1898l-0.33632 0.1738 0.24796 0.29706c0.36355 0.43554 0.86218 1.1041 1.2843 1.7219 0.36239 0.53043 0.36964 0.54523 0.30001 0.6129-0.06941 0.067464-0.0806 0.060564-0.41249-0.25453zm-2.0446-2.4588c0.6055-0.28645 0.99371-0.97663 0.72502-1.289-0.07672-0.089193-0.11485-0.10168-0.3052-0.099971-0.11964 0.00108-0.33838 0.02234-0.4861 0.047256l-0.26858 0.045301 0.02415 0.28571c0.01327 0.15714 0.02415 0.47076 0.02415 0.69694 0 0.26487 0.01431 0.41124 0.04025 0.41124 0.02214 0 0.13297-0.043863 0.2463-0.097473zm-43.187 2.4859c-0.37464-0.17003-0.35789-0.65059 0.050832-1.4586 0.20078-0.39694 0.20139-0.39918 0.11884-0.44276-0.16025-0.084618-0.51984-0.379-0.50072-0.40993 0.01063-0.017198 0.22729-0.053628 0.48146-0.080957 0.32432-0.034869 0.47618-0.06714 0.50922-0.10821 0.0259-0.032186 0.15374-0.19498 0.28409-0.36176 0.13035-0.16678 0.55398-0.62437 0.94141-1.0169l0.70441-0.71361 0.19509 0.67571c0.1073 0.37164 0.24783 0.82069 0.31229 0.9979l0.11719 0.32219 1.2317-0.01524-0.54453 0.10992c-0.29949 0.060455-0.55251 0.1179-0.56227 0.12766-0.06269 0.062687 0.39044 0.80693 0.64828 1.0648 0.12964 0.12964 0.48992 0.36176 0.56149 0.36176 0.0059 0 0.0123-0.22601 0.01423-0.50224 3e-3 -0.42911 0.01822-0.55079 0.10458-0.83568 0.11911-0.39285 0.27341-0.71227 0.50484-1.0451 0.09231-0.13275 0.16258-0.24664 0.15614-0.25307-0.0065-0.00643-0.13604 0.040212-0.28802 0.10366l-0.27632 0.11536-0.17222-0.06577c-0.20836-0.079564-0.6741-0.38684-0.82251-0.54265l-0.10771-0.11308 0.10771-0.022386c0.20741-0.043106 1.0616-0.13622 1.7566-0.19149 0.73616-0.058544 2.9507-0.15337 2.9766-0.12745 0.0083 0.00829-0.26146 0.072118-0.59946 0.14183-0.338 0.069713-0.91202 0.20092-1.2756 0.29157-0.75577 0.18843-0.83062 0.23505-1.0267 0.63953-0.21135 0.43607-0.24412 1.1309-0.07468 1.5838 0.34605 0.9249 1.2243 1.2401 2.3217 0.83336 0.2278-0.084438 0.25975-0.10772 0.2427-0.17689-0.01079-0.043811-0.04561-0.182-0.07735-0.30709-0.03175-0.12509-0.06789-0.30419-0.08032-0.398-0.01934-0.14595-0.04696-0.18899-0.19133-0.29819-0.0928-0.07019-0.16873-0.14268-0.16873-0.1611 0-0.018414 0.05848-0.033478 0.12996-0.033478 0.15394 0 0.24909-0.082197 0.24909-0.21519 0-0.18342 0.1211-0.56347 0.27231-0.85462 0.55903-1.0764 1.792-1.4302 2.9194-0.83774 0.25236 0.13261 0.67865 0.47721 0.63673 0.51471-0.09407 0.084133-0.91752 0.67265-0.94117 0.67265-0.01696 0-0.14902-0.094701-0.29346-0.21045-0.5636-0.45162-1.1343-0.63763-1.5129-0.49306-0.35351 0.13501-0.56421 0.5358-0.54259 1.0321l0.01127 0.25891 0.20848-0.00647c0.11466-0.00356 0.47287-0.0245 0.79601-0.04654 0.76293-0.052038 2.735-0.12943 2.8278-0.11098 0.03955 0.00786-0.29482 0.08869-0.74305 0.17962-0.44823 0.090931-1.0111 0.21429-1.2509 0.27413-0.5393 0.13461-1.5162 0.44618-1.5162 0.48358 0 0.066707 0.36756 0.38628 0.56583 0.49195 0.6808 0.36286 1.419 0.28627 2.3178-0.24051 0.12577-0.073711 0.24296-0.13402 0.26044-0.13402 0.01748 0 0.0436 0.046907 0.05807 0.10424 0.03122 0.12377-0.06729 0.22052-0.58451 0.5741-1.0814 0.73928-2.0465 0.9145-2.7278 0.49528-0.10578-0.065086-0.24858-0.18406-0.31733-0.26438l-0.12501-0.14605-0.51026 0.25506c-1.0468 0.52325-1.8109 0.65552-2.436 0.42165-0.20239-0.075724-0.48205-0.30295-0.59674-0.48485l-0.05506-0.087332-0.43591 0.207c-0.53056 0.25194-0.80279 0.34379-0.92675 0.31268-0.26137-0.065601-0.54975-0.5667-0.82024-1.4253-0.08867-0.28144-0.17109-0.52349-0.18316-0.53788-0.04348-0.051817-1.4404 0.38865-1.5361 0.48436-0.06805 0.068054-0.11345 0.42454-0.08266 0.64915 0.04914 0.3585 0.29626 0.63113 0.66683 0.73565l0.16929 0.04775-0.13139 0.053932c-0.24364 0.10001-0.84092 0.23487-1.0365 0.23403-0.1097-4.648e-4 -0.26483-0.032915-0.35666-0.074596zm2.1818-2.5572c0.0057-0.00537-0.05512-0.26142-0.13513-0.56901l-0.14546-0.55925-0.15238 0.18422c-0.16846 0.20365-0.39839 0.54005-0.56342 0.82433l-0.10754 0.18525 0.5468-0.027885c0.30074-0.015336 0.55145-0.032278 0.55713-0.037648zm19.909 2.5126c-0.10603-0.051066-0.353-0.26621-0.65267-0.56855-0.26516-0.26752-0.49311-0.48639-0.50657-0.48639-0.01346 0-0.1206 0.082091-0.2381 0.18242-0.46656 0.39841-1.0387 0.79133-1.2493 0.85792-0.16454 0.052039-0.37713-0.2524-0.32907-0.47124 0.02195-0.099946 0.03031-0.10367 0.16325-0.072788 0.39886 0.092663 0.59191-0.00263 1.2463-0.61518l0.1965-0.18392-0.46183-0.57877c-0.64158-0.80402-1.1785-1.5506-1.1726-1.6304 0.0078-0.10568 0.255-0.48713 0.41898-0.64649l0.14918-0.14498 0.08375 0.10647c0.06039 0.076777 0.07768 0.13688 0.06195 0.21548-0.01848 0.092382 0.01681 0.15897 0.23132 0.43651 0.29425 0.38071 0.86974 1.0722 1.1353 1.3641l0.18439 0.20269 0.17518-0.2406c0.37422-0.51398 0.55164-0.95404 0.51515-1.2778-0.023864-0.21172-0.20043-0.39352-0.45038-0.46373l-0.16414-0.046106 0.28429-0.089016c0.84245-0.26379 1.3509-0.25828 1.4759 0.015984 0.02777 0.060941 0.06213 0.083055 0.10694 0.068835 0.09593-0.030441 1.1771-0.21139 1.263-0.21139 0.05793 0 0.0728 0.0271 0.0728 0.13267 0 0.094405 0.0169 0.13267 0.0586 0.13267 0.03222 0 0.51167-0.1023 1.0654-0.22734l1.0068-0.22734 0.08119 0.10187c0.04466 0.056028 0.09928 0.12594 0.12138 0.15535 0.03438 0.045746 0.11077 0.042054 0.52814-0.025528 0.26837-0.043456 0.49751-0.069444 0.5092-0.057754 0.01169 0.011691 0.03407 0.77322 0.04973 1.6923 0.01565 0.91906 0.03615 1.6787 0.04554 1.6881 0.0094 0.00939 0.24402-0.00113 0.52139-0.023369 0.27737-0.022242 0.65284-0.051207 0.83436-0.064367l0.33005-0.023928-0.09147-0.13888c-0.11098-0.16847-0.20853-0.52736-0.20853-0.7671 0-1.0072 0.85516-1.9229 2.0004-2.142 1.0914-0.20881 2.1105 0.30433 2.3378 1.1771 0.18811 0.72221-0.11906 1.5088-0.7863 2.0136-0.95391 0.7216-2.2086 0.77429-2.9895 0.12555l-0.17669-0.14679-0.54351 0.18578c-0.57221 0.19559-1.1027 0.41196-1.314 0.53598-0.12386 0.072679-0.12905 0.072734-0.28657 0.00306l-0.16042-0.070965-0.5922 0.20903 0.02416-0.17616c0.07937-0.5788 0.10642-1.1751 0.08903-1.9627-0.01065-0.48225-0.03537-0.90542-0.05494-0.9404-0.03038-0.054293-0.05119-0.041066-0.14237 0.090506-0.13977 0.20169-0.49529 0.46443-0.87322 0.64534-0.29945 0.14334-0.92807 0.35312-1.2027 0.40134l-0.14137 0.024824-0.02048 1.5171-0.53067 0.19934c-0.29187 0.10964-0.53628 0.18458-0.54314 0.16655-0.0068-0.018033 0.0065-0.15474 0.02957-0.30378 0.02312-0.14905 0.03512-0.27793 0.02664-0.2864-0.0085-0.00847-0.18383 0.10342-0.38967 0.24865-0.42855 0.30236-0.78112 0.49731-0.89931 0.49726-0.04479-1.64e-5 -0.1582-0.036999-0.25201-0.082184zm10.183-0.745c0.19797-0.101 0.33625-0.26552 0.48352-0.57527 0.10901-0.22927 0.11711-0.27534 0.11674-0.66334-3.72e-4 -0.30472-0.019309-0.47307-0.070625-0.62543-0.15789-0.46878-0.46974-0.88697-0.77662-1.0414-0.17342-0.087293-0.48118-0.11356-0.6875-0.058681-0.24788 0.065934-0.56038 0.39551-0.68371 0.72108-0.1285 0.33918-0.13032 0.92338-4e-3 1.2888 0.16766 0.48508 0.50025 0.87264 0.86582 1.0089 0.19384 0.07227 0.55945 0.045874 0.75642-0.054609zm-8.6671-0.081673c0.12849-0.081148 0.08208-2.2328-0.05525-2.5614-0.05464-0.13075-0.27908-0.43391-0.32125-0.43391-0.01246 0-0.05267 0.084476-0.08933 0.18772-0.12414 0.34951-0.62688 1.0185-1.23 1.6366l-0.24513 0.25125 0.24079 0.20074c0.46916 0.39112 0.92408 0.64177 1.3021 0.71746 0.21347 0.042733 0.33211 0.043206 0.398 0.00158zm1.6282-1.6296c0.50392-0.32336 0.76309-0.83997 0.58966-1.1754-0.0653-0.12627-0.15592-0.1631-0.38977-0.15841-0.14871 0.00298-0.77535 0.077755-0.79211 0.094513-0.0036 0.00359 0.0032 0.3423 0.0151 0.75269l0.02163 0.74616 0.18502-0.070302c0.10176-0.038667 0.26847-0.12385 0.37047-0.1893zm-28.714 2.2565c0.05883-0.39945 0.09563-0.96195 0.09652-1.4751l1e-3 -0.56312-0.10424-0.080944c-0.05734-0.044519-0.17807-0.14845-0.2683-0.23096-0.18462-0.16883-0.17843-0.17768 0.15913-0.22743l0.18461-0.02721-0.02621-0.2339c-0.034276-0.30573-0.12172-0.49647-0.34061-0.74293-0.098399-0.11079-0.16478-0.21555-0.14751-0.23279 0.03317-0.033123 0.93405-0.20768 1.2843-0.24884l0.20647-0.024266v0.14044c0 0.1162 0.01145 0.13695 0.06633 0.1202 0.03648-0.011135 0.44169-0.10473 0.90045-0.20798 0.45876-0.10326 0.8788-0.19895 0.9334-0.21266 0.08949-0.022459 0.11285-0.00323 0.2367 0.19477 0.07558 0.12083 0.13742 0.24639 0.13742 0.27903 0 0.040886-0.17688 0.13171-0.56858 0.29194-0.55214 0.22587-0.56858 0.23006-0.56858 0.14504 0-0.12881-0.11363-0.24702-0.2717-0.28266-0.13615-0.030692-0.73426 0.034286-0.82355 0.089469-0.02631 0.016263-0.0419 0.17457-0.0419 0.42551v0.39961l0.25586-0.023567c0.3438-0.031668 1.8243-0.09792 2.1322-0.095412 0.23053 0.00188 0.18053 0.018707-0.77705 0.26152-0.89018 0.22572-1.2226 0.32225-1.5067 0.43745-0.06098 0.024729-0.06633 0.11347-0.06633 1.0991 0 1.2183 0.03201 1.1169-0.35372 1.1201-0.12859 0.00106-0.3504 0.0149-0.49289 0.03073l-0.25909 0.028784zm19.517 0.037261c-0.65777-0.1859-1.049-0.72588-1.1684-1.6126-0.01962-0.14574-0.04753-0.18915-0.19169-0.29819-0.0928-0.07019-0.16873-0.14268-0.16873-0.1611 0-0.018414 0.05848-0.033478 0.12996-0.033478 0.15394 0 0.24909-0.082197 0.24909-0.21519 0-0.18342 0.1211-0.56347 0.27231-0.85462 0.55903-1.0764 1.792-1.4302 2.9194-0.83774 0.25236 0.13261 0.67865 0.47721 0.63673 0.51471-0.09407 0.084133-0.91752 0.67265-0.94117 0.67265-0.01696 0-0.14902-0.094701-0.29346-0.21045-0.56359-0.45162-1.1343-0.63762-1.5128-0.49306-0.35351 0.13501-0.56421 0.5358-0.54259 1.0321l0.01128 0.25891 0.20848-0.00647c0.11466-0.00356 0.47287-0.0245 0.796-0.04654 0.76293-0.052038 2.735-0.12943 2.8278-0.11098 0.03955 0.00786-0.29482 0.08869-0.74305 0.17962-0.44823 0.090931-1.0111 0.21429-1.2509 0.27413-0.5393 0.13461-1.5162 0.44618-1.5162 0.48358 0 0.066707 0.36756 0.38628 0.56583 0.49195 0.6808 0.36286 1.419 0.28627 2.3178-0.24051 0.12577-0.073711 0.24296-0.13402 0.26044-0.13402 0.01748 0 0.0436 0.046907 0.05806 0.10424 0.02245 0.088998 0.0054 0.12238-0.11694 0.22831-0.43247 0.37461-1.1796 0.80326-1.6637 0.95451-0.34393 0.10746-0.87702 0.13553-1.1435 0.060224z" style="fill:#9c0000;stroke-width:1.0001"/>
<path d="m5.4658 9.6954-0.89195-0.41603c-0.23756-0.1108-0.97192-0.36979-2.1247-0.34112-1.0422 0.025913-1.8737-0.18055-1.8737-0.19896 0-0.01841 0.95714-0.0049 1.4432-0.0043 2.9322 0.0034 5.8868 0.01266 8.8695 0.04656 3.8349 0.06707 8.0575 0.12875 11.155 0.17237 8.4723 0.11916 30.372 0.4843 31.403 0.52358 0.02581 9.857e-4 0.1302 3.3e-6 0.03499 0.00284-0.22601 0.00673 0.24231 0.72486-0.06949 0.72652-0.30407 0.0016 0.08513-0.7254-0.08214-0.72186-0.72768 0.015407-3.9938 0.013408-8.1349 0.00538-4.9776-0.00965-11.228-0.01261-13.891-0.0066-5.9889 0.01359-16.837 0.14334-16.837 0.14334z" style="fill:#9c0000;stroke-width:1.0001"/>
</svg>
