<?xml version="1.0" encoding="UTF-8" standalone="no"?>
<svg
   xmlns:dc="http://purl.org/dc/elements/1.1/"
   xmlns:cc="http://creativecommons.org/ns#"
   xmlns:rdf="http://www.w3.org/1999/02/22-rdf-syntax-ns#"
   xmlns:svg="http://www.w3.org/2000/svg"
   xmlns="http://www.w3.org/2000/svg"
   xmlns:sodipodi="http://sodipodi.sourceforge.net/DTD/sodipodi-0.dtd"
   xmlns:inkscape="http://www.inkscape.org/namespaces/inkscape"
   width="230"
   height="48"
   viewBox="0 0 60.854186 12.7"
   version="1.1"
   id="svg850"
   inkscape:version="1.0.1 (3bc2e813f5, 2020-09-07)"
   sodipodi:docname="FateExplorer_Blood_Logo.svg">
  <defs
     id="defs844">
    <pattern
       id="EMFhbasepattern"
       patternUnits="userSpaceOnUse"
       width="6"
       height="6"
       x="0"
       y="0" />
  </defs>
  <sodipodi:namedview
     id="base"
     pagecolor="#ffffff"
     bordercolor="#666666"
     borderopacity="1.0"
     inkscape:pageopacity="0.0"
     inkscape:pageshadow="2"
     inkscape:zoom="4"
     inkscape:cx="128.16653"
     inkscape:cy="49.48432"
     inkscape:document-units="mm"
     inkscape:current-layer="layer1"
     inkscape:document-rotation="0"
     showgrid="false"
     units="px"
     width="144px"
     inkscape:window-width="1920"
     inkscape:window-height="1017"
     inkscape:window-x="-8"
     inkscape:window-y="-8"
     inkscape:window-maximized="1"
     inkscape:pagecheckerboard="true" />
  <metadata
     id="metadata847">
    <rdf:RDF>
      <cc:Work
         rdf:about="">
        <dc:format>image/svg+xml</dc:format>
        <dc:type
           rdf:resource="http://purl.org/dc/dcmitype/StillImage" />
        <dc:title />
      </cc:Work>
    </rdf:RDF>
  </metadata>
  <g
     inkscape:label="Ebene 1"
     inkscape:groupmode="layer"
     id="layer1">
    <path
       id="rect1443"
       style="fill:#dadada;fill-opacity:1;stroke:none;stroke-width:5.00967;stroke-linecap:round;stroke-linejoin:round;stroke-dashoffset:14"
       d="M 1.310464,8.853897 C 5.3875372,4.9517415 6.7761715,4.4549428 7.7425872,4.4929545 L 7.6308352,5.4655886 C 3.3205211,6.9275479 2.3999659,8.1146617 1.9203328,9.266025 Z"
       sodipodi:nodetypes="ccccc" />
    <path
       style="fill:#9c0000;fill-opacity:1;stroke-width:1.00013;stroke-miterlimit:4;stroke-dasharray:none"
       d="M 52.275018,7.7989635 C 51.622324,7.1793198 50.927618,6.6700632 50.315979,6.3628793 50.132993,6.2709785 49.974853,6.195787 49.964554,6.195787 c -0.0103,0 -0.02343,0.2578981 -0.02919,0.5731069 l -0.01047,0.573107 -0.530671,0.1993194 c -0.291869,0.1096258 -0.535977,0.1854769 -0.542466,0.168558 -0.0065,-0.016919 0.007,-0.1555593 0.03009,-0.3080898 0.06625,-0.4385795 0.09166,-1.8830751 0.04249,-2.4153056 C 48.874037,4.441906 48.81699,4.2862939 48.562712,3.9999873 48.464312,3.8891966 48.397937,3.7844408 48.415206,3.767196 48.448216,3.734235 49.3154,3.5673033 49.687996,3.5221865 l 0.217953,-0.026391 v 0.1180827 c 0,0.091005 0.01662,0.1180825 0.07249,0.1180825 0.03987,0 0.485116,-0.093526 0.989451,-0.2078366 l 0.916967,-0.2078364 0.07397,0.084645 c 0.119371,0.1366019 0.297178,0.5296733 0.29721,0.6570406 0,0.4220682 -0.36202,0.8268428 -1.064476,1.1898409 l -0.336319,0.1737964 0.247958,0.297058 c 0.363552,0.4355414 0.862177,1.1040722 1.284294,1.7219195 0.362392,0.5304294 0.369638,0.5452328 0.300016,0.612902 -0.06941,0.067464 -0.08059,0.060564 -0.41249,-0.2545262 z M 50.230404,5.3402131 c 0.6055,-0.2864468 0.993712,-0.9766323 0.725026,-1.2889959 -0.07672,-0.089193 -0.114845,-0.1016814 -0.305197,-0.099971 -0.119634,0.00108 -0.338381,0.02234 -0.486098,0.047256 l -0.268579,0.045301 0.02415,0.2857052 c 0.01327,0.1571378 0.02415,0.4707614 0.02415,0.6969414 0,0.2648748 0.01432,0.4112362 0.04025,0.4112362 0.02214,0 0.132971,-0.043863 0.246295,-0.097473 z m 9.701429,2.4587504 C 59.279139,7.1793198 58.584435,6.6700632 57.972794,6.3628793 57.789808,6.2709785 57.631669,6.195787 57.621369,6.195787 c -0.0103,0 -0.02343,0.2578981 -0.02919,0.5731069 l -0.01047,0.573107 -0.53067,0.1993194 c -0.291868,0.1096258 -0.535977,0.1854769 -0.542466,0.168558 -0.0065,-0.016919 0.0073,-0.1555593 0.03062,-0.3080898 0.06116,-0.3998003 0.09791,-2.153627 0.04512,-2.153627 -0.07831,0 -1.722306,0.345761 -2.086598,0.4388483 -0.500564,0.1279089 -1.445665,0.4333163 -1.445665,0.4671634 0,0.066707 0.367559,0.386275 0.565831,0.4919525 0.6808,0.3628638 1.418967,0.2862667 2.31777,-0.2405082 0.12577,-0.073711 0.242969,-0.1340204 0.260439,-0.1340204 0.01748,0 0.0436,0.046907 0.05806,0.1042388 0.03122,0.1237662 -0.06729,0.2205205 -0.584512,0.574104 -1.081406,0.7392779 -2.046447,0.9144981 -2.727766,0.4952775 -0.43283,-0.2663215 -0.684971,-0.731327 -0.780249,-1.4389555 -0.01962,-0.1457416 -0.04753,-0.1891505 -0.191697,-0.298191 -0.0928,-0.07019 -0.168727,-0.1426836 -0.168727,-0.1610964 0,-0.018414 0.05849,-0.033478 0.12996,-0.033478 0.153945,0 0.24909,-0.082197 0.24909,-0.2151901 0,-0.183419 0.121095,-0.5634677 0.272305,-0.8546164 0.559032,-1.0763763 1.79197,-1.4301802 2.919379,-0.837744 0.252363,0.1326132 0.678651,0.4772093 0.636723,0.514706 -0.09407,0.084133 -0.91752,0.6726491 -0.941169,0.6726491 -0.01696,0 -0.149012,-0.094701 -0.293457,-0.2104467 C 54.210438,4.1312316 53.639728,3.94523 53.261187,4.0897973 c -0.214902,0.082071 -0.420303,0.3175253 -0.494264,0.566584 -0.06331,0.2131985 -0.07545,0.6890023 -0.01848,0.7242157 0.02064,0.012756 0.238122,0.00561 0.483289,-0.015884 0.511742,-0.044863 1.599832,-0.1017391 2.645418,-0.1382806 l 0.721359,-0.02521 -0.02995,-0.3414588 C 56.532796,4.4522091 56.458403,4.26896 56.21952,3.9999875 56.121121,3.8891968 56.054741,3.784441 56.072012,3.7671962 c 0.03301,-0.032961 0.900196,-0.1998927 1.27279,-0.2450095 l 0.217953,-0.026391 v 0.1180825 c 0,0.091005 0.01662,0.1180825 0.07249,0.1180825 0.03987,0 0.485115,-0.093526 0.989451,-0.2078366 l 0.916967,-0.2078365 0.07397,0.084645 c 0.11937,0.1366019 0.29718,0.5296733 0.29721,0.6570406 0,0.4220681 -0.36202,0.8268428 -1.064476,1.1898409 l -0.336324,0.1737964 0.247959,0.297058 c 0.363551,0.4355413 0.862176,1.1040722 1.284295,1.7219195 0.362389,0.5304293 0.369639,0.5452327 0.300014,0.6129019 -0.06941,0.067464 -0.0806,0.060564 -0.41249,-0.2545261 z M 57.887221,5.3402131 c 0.605498,-0.2864468 0.99371,-0.9766323 0.725025,-1.2889959 -0.07672,-0.089193 -0.114846,-0.1016814 -0.305196,-0.099971 -0.119636,0.00108 -0.338383,0.02234 -0.486099,0.047256 l -0.26858,0.045301 0.02415,0.2857052 c 0.01327,0.1571378 0.02415,0.4707614 0.02415,0.6969414 0,0.2648748 0.01431,0.4112362 0.04025,0.4112362 0.02214,0 0.13297,-0.043863 0.246296,-0.097473 z M 14.700231,7.8260852 C 14.325593,7.6560512 14.342339,7.1754996 14.751063,6.3674912 14.951848,5.970556 14.95245,5.9683143 14.869908,5.9247301 14.709655,5.840112 14.350071,5.5457268 14.369187,5.5147971 c 0.01063,-0.017198 0.227287,-0.053628 0.481462,-0.080957 0.324316,-0.034869 0.47618,-0.06714 0.509222,-0.1082076 0.0259,-0.032186 0.153735,-0.1949774 0.284087,-0.3617596 0.130351,-0.166782 0.553985,-0.6243655 0.941409,-1.0168522 l 0.704406,-0.7136124 0.195094,0.6757074 c 0.107303,0.3716389 0.247831,0.8206937 0.312286,0.9978997 l 0.11719,0.3221929 0.615841,-0.00762 0.61584,-0.00762 -0.544527,0.1099193 c -0.299491,0.060455 -0.55251,0.1179018 -0.562267,0.1276584 -0.06269,0.062687 0.390443,0.8069321 0.648279,1.0647679 0.129637,0.1296369 0.489918,0.3617576 0.561494,0.3617576 0.0059,0 0.0123,-0.2260088 0.01423,-0.5022416 0.003,-0.4291089 0.01822,-0.550794 0.104584,-0.8356765 0.119108,-0.3928511 0.273407,-0.7122723 0.504838,-1.0450878 0.09231,-0.1327546 0.162579,-0.2466369 0.156144,-0.2530721 -0.0065,-0.00643 -0.136044,0.040212 -0.288021,0.1036595 l -0.276319,0.1153599 c -0.14056,0.086816 0.02677,0.2692669 -0.07784,0.2689054 -0.104611,-3.616e-4 0.0964,-0.2224852 -0.09438,-0.3346754 -0.20771,-0.081229 -0.674092,-0.3868397 -0.822502,-0.5426479 l -0.107714,-0.1130831 0.107714,-0.022386 c 0.207412,-0.043106 1.06155,-0.1362192 1.756582,-0.191493 0.736162,-0.058544 3.080902,-0.1823052 3.106816,-0.1563914 -0.523912,0.1403816 -0.134222,0.8196226 -0.310187,0.8196226 -0.240226,0 0.382417,-0.8352776 -0.419502,-0.6488534 -0.336149,0.078145 -0.912024,0.2009188 -1.275612,0.2915679 -0.755771,0.188428 -0.83062,0.235053 -1.026661,0.6395311 -0.211352,0.4360695 -0.244117,1.1309135 -0.07468,1.5837717 0.346049,0.9248981 1.2243,1.2401395 2.321722,0.8333635 0.227803,-0.084438 0.259749,-0.1077222 0.242705,-0.176893 C 22.78013,6.6675409 22.74531,6.5293526 22.71357,6.4042661 22.68182,6.2791798 22.64568,6.1000784 22.63325,6.0062637 22.61391,5.8603127 22.58629,5.8172696 22.441923,5.7080726 c -0.0928,-0.07019 -0.168728,-0.1426836 -0.168728,-0.1610963 0,-0.018414 0.05848,-0.033478 0.129961,-0.033478 0.153943,0 0.24909,-0.082197 0.24909,-0.21519 0,-0.1834191 0.121095,-0.5634678 0.272306,-0.8546164 0.559029,-1.0763763 1.791967,-1.4301803 2.919376,-0.837744 0.252364,0.1326131 0.678651,0.4772092 0.636726,0.514706 -0.09407,0.084133 -0.917522,0.672649 -0.941169,0.672649 -0.01696,0 -0.149016,-0.094701 -0.293458,-0.2104466 -0.563601,-0.4516247 -1.134308,-0.6376262 -1.512852,-0.493059 -0.353514,0.1350084 -0.564212,0.5357951 -0.542593,1.0321175 l 0.01127,0.2589141 0.208477,-0.00647 c 0.114664,-0.00356 0.472866,-0.0245 0.796006,-0.04654 0.762931,-0.052038 2.734979,-0.1294332 2.827822,-0.1109812 0.03955,0.00786 -0.294819,0.08869 -0.743046,0.1796211 -0.448226,0.090931 -1.011116,0.2142894 -1.250865,0.2741301 -0.539296,0.1346066 -1.516201,0.4461832 -1.516201,0.4835809 0,0.066707 0.367558,0.386275 0.565829,0.4919525 0.680802,0.3628639 1.418968,0.2862667 2.317774,-0.2405082 0.125768,-0.073711 0.242965,-0.1340204 0.260435,-0.1340204 0.01748,0 0.0436,0.046907 0.05807,0.1042388 0.03122,0.1237662 -0.06729,0.2205205 -0.584512,0.574104 C 25.060219,7.6892178 24.095179,7.864438 23.413858,7.4452174 23.30808,7.3801314 23.16528,7.2611585 23.096525,7.1808336 L 22.971515,7.0347883 22.461255,7.289852 C 21.414484,7.813101 20.650316,7.9453731 20.025252,7.7115066 19.822861,7.6357826 19.543201,7.4085578 19.428513,7.2266541 l -0.05506,-0.087332 -0.435908,0.206997 c -0.530557,0.251943 -0.80279,0.3437932 -0.926749,0.3126817 -0.261373,-0.065601 -0.54975,-0.5667046 -0.820241,-1.4253088 -0.08867,-0.2814448 -0.171089,-0.5234923 -0.183164,-0.5378828 -0.2512,0.018719 -0.515662,0.1166646 -0.748453,0.1868582 -0.427062,0.1346622 -0.153587,0.6156249 -0.271004,0.6176919 -0.142795,0.00251 0.148104,-0.5886935 -0.242344,-0.4435355 -0.145097,0.053943 -0.250347,0.099417 -0.274273,0.123343 -0.06805,0.068052 -0.113446,0.4245357 -0.08266,0.6491493 0.04914,0.3585019 0.296259,0.6311289 0.666826,0.7356489 l 0.169292,0.04775 -0.131388,0.053932 C 15.849746,7.7666582 15.25247,7.9015194 15.056899,7.9006809 14.947196,7.9002161 14.792071,7.8677662 14.700234,7.8260851 Z m 2.181825,-2.557244 c 0.0057,-0.00537 -0.05512,-0.2614245 -0.135126,-0.5690113 L 16.60147,4.1405809 16.449088,4.3247972 C 16.280626,4.5284519 16.050702,4.8648498 15.885672,5.149124 l -0.107545,0.1852502 0.546796,-0.027885 c 0.300739,-0.015336 0.551449,-0.032278 0.557133,-0.037648 z m 19.908756,2.5125536 c -0.106027,-0.051066 -0.353,-0.2662058 -0.65267,-0.5685454 -0.265156,-0.2675156 -0.493112,-0.486392 -0.506571,-0.486392 -0.01346,0 -0.120603,0.082091 -0.238098,0.1824223 -0.466555,0.3984096 -1.0387,0.7913278 -1.249253,0.857919 -0.164541,0.052039 -0.377132,-0.2524042 -0.329067,-0.4712421 0.02195,-0.099946 0.03031,-0.1036717 0.163246,-0.072788 0.398862,0.092663 0.591906,-0.00263 1.246326,-0.615178 L 35.42122,6.4236656 34.95939,5.8448984 C 34.317813,5.0408736 33.780886,4.2943443 33.786771,4.2145189 c 0.0078,-0.1056773 0.255005,-0.487129 0.418984,-0.6464864 l 0.149178,-0.1449754 0.08375,0.1064721 c 0.06039,0.076777 0.07768,0.136875 0.06195,0.2154829 -0.01848,0.092382 0.01681,0.1589666 0.231323,0.436506 0.294254,0.3807073 0.869735,1.0721569 1.135317,1.3641009 L 36.051664,5.7483139 36.226843,5.507714 C 36.601063,4.9937389 36.778481,4.5536753 36.741994,4.2299515 36.71813,4.0182323 36.541566,3.8364352 36.291616,3.7662263 l -0.164141,-0.046106 0.284286,-0.089016 c 0.842453,-0.2637885 1.350943,-0.2582816 1.475907,0.015984 0.02777,0.060941 0.06213,0.083055 0.106936,0.068835 0.09593,-0.030441 1.177096,-0.2113924 1.263048,-0.2113924 0.05793,0 0.0728,0.0271 0.0728,0.1326676 0,0.094405 0.0169,0.1326676 0.0586,0.1326676 0.03222,0 0.51167,-0.1023022 1.065433,-0.2273385 l 1.00684,-0.2273386 0.08119,0.1018687 c 0.04466,0.056028 0.09928,0.1259358 0.121384,0.1553509 0.03438,0.045746 0.110768,0.042054 0.528135,-0.025528 0.268368,-0.043456 0.497507,-0.069444 0.5092,-0.057754 0.01169,0.011691 0.03407,0.7732152 0.04973,1.6922749 0.01565,0.9190598 0.03615,1.6787 0.04554,1.6880893 0.0094,0.00939 0.244015,-0.00113 0.521388,-0.023369 0.277374,-0.022242 0.652837,-0.051207 0.834361,-0.064367 l 0.330046,-0.023928 -0.09147,-0.1388764 C 44.279852,6.4504826 44.182296,6.0915946 44.182296,5.8518515 c 0,-1.0072065 0.855158,-1.9228983 2.000419,-2.1420231 1.091354,-0.2088104 2.110491,0.3043269 2.33782,1.1770976 0.188111,0.7222118 -0.119061,1.5088146 -0.786302,2.0135547 -0.953913,0.7215952 -2.208615,0.7742879 -2.989475,0.1255466 L 44.56807,6.879236 44.02456,7.0650147 c -0.572212,0.1955892 -1.102667,0.4119552 -1.314044,0.5359819 -0.123864,0.072679 -0.129049,0.072734 -0.286572,0.00306 l -0.160424,-0.070965 -0.296098,0.104513 -0.2961,0.1045128 0.02416,-0.1761589 c 0.07937,-0.5788035 0.106415,-1.175055 0.08903,-1.9626904 -0.01065,-0.4822459 -0.03537,-0.905424 -0.05494,-0.9403963 -0.03038,-0.054293 -0.05119,-0.041066 -0.142371,0.090506 -0.139768,0.201687 -0.49529,0.4644306 -0.873217,0.6453419 -0.299448,0.1433435 -0.928074,0.353115 -1.202705,0.4013394 l -0.141372,0.024824 -0.01024,0.7585414 -0.01024,0.7585416 -0.530671,0.1993365 c -0.291868,0.1096351 -0.536281,0.1845816 -0.54314,0.1665478 -0.0068,-0.018033 0.0065,-0.154737 0.02957,-0.303785 0.02312,-0.149048 0.03512,-0.2779294 0.02664,-0.286403 -0.0085,-0.00847 -0.183826,0.1034203 -0.389671,0.2486531 -0.428547,0.3023556 -0.781118,0.4973053 -0.899311,0.4972618 -0.04479,-1.64e-5 -0.158195,-0.036999 -0.252008,-0.082184 z M 46.974135,7.0363958 C 47.172101,6.9354006 47.310382,6.7708794 47.457653,6.4611222 47.56666,6.2318483 47.574766,6.1857862 47.574388,5.7977842 47.574016,5.4930641 47.555079,5.3247114 47.503763,5.1723512 47.345874,4.703574 47.03402,4.285381 46.72714,4.1309059 46.218925,3.8750847 46.602144,4.4107344 46.448348,4.4107344 c -0.159939,0 0.251554,-0.5154272 -0.408711,-0.3385096 -0.247756,0.066386 -0.560377,0.395512 -0.683714,0.7210761 -0.128495,0.3391813 -0.130319,0.9233804 -0.004,1.2887707 0.167662,0.485077 0.500249,0.8726405 0.865816,1.0089336 0.193842,0.07227 0.559454,0.045874 0.756419,-0.054609 z m -8.667121,-0.081673 c 0.12849,-0.081148 0.08208,-2.2327501 -0.05525,-2.561424 -0.05464,-0.1307533 -0.279075,-0.4339084 -0.321248,-0.4339084 -0.01246,0 -0.05267,0.084476 -0.08933,0.1877233 -0.124136,0.3495099 -0.62688,1.0184624 -1.229955,1.6365815 l -0.245131,0.2512461 0.240787,0.200738 c 0.469158,0.3911215 0.924077,0.6417749 1.30213,0.7174552 0.213466,0.042733 0.332106,0.043206 0.398003,0.00158 z m 1.628198,-1.6296489 c 0.503915,-0.323361 0.763094,-0.8399746 0.589662,-1.1753545 -0.0653,-0.1262736 -0.155918,-0.1631019 -0.389768,-0.158408 -0.148707,0.00298 -0.775349,0.077755 -0.792106,0.094513 -0.0036,0.00359 0.0032,0.3422998 0.0151,0.7526886 l 0.02163,0.7461615 0.18502,-0.070302 C 39.666515,5.4757055 39.833224,5.390522 39.935216,5.3250739 Z M 11.22113,7.5816221 c 0.05883,-0.3994546 0.09563,-0.9619545 0.09652,-1.4751423 l 10e-4,-0.5631202 -0.104239,-0.080944 C 11.157071,5.4178969 11.036342,5.3139661 10.946115,5.2314588 10.761491,5.0626287 10.767681,5.0537816 11.105242,5.0040253 l 0.184606,-0.02721 -0.02621,-0.2339007 C 11.229362,4.4371856 11.141914,4.2464405 10.923029,3.9999873 10.82463,3.8891966 10.758254,3.7844408 10.775523,3.767196 10.808693,3.734073 11.709577,3.5595206 12.059798,3.5183589 l 0.206469,-0.024266 v 0.1404408 c 0,0.1161956 0.01145,0.1369456 0.06633,0.1201951 0.03648,-0.011135 0.441687,-0.1047276 0.900451,-0.2079833 0.458765,-0.1032556 0.878796,-0.198951 0.933402,-0.2126566 0.08949,-0.022459 0.112851,-0.00323 0.2367,0.1947665 0.07558,0.1208274 0.137416,0.2463925 0.137416,0.2790342 0,0.040886 -0.176877,0.1317052 -0.568576,0.2919422 -0.55214,0.2258704 -0.568575,0.230063 -0.568575,0.1450382 0,-0.1288097 -0.113633,-0.2470246 -0.271699,-0.2826562 -0.136154,-0.030692 -0.734261,0.034286 -0.823549,0.089469 -0.02631,0.016263 -0.0419,0.174569 -0.0419,0.4255106 v 0.3996127 l 0.25586,-0.023567 c 0.343798,-0.031668 1.824335,-0.097922 2.132157,-0.095412 0.134062,0.00109 0.17449,0.011642 -0.0058,0.059951 -0.398375,0.1067443 -0.0867,0.6046519 -0.21754,0.6060727 -0.208402,0.00226 0.349843,-0.64662 -0.553759,-0.4045004 -0.887058,0.2376864 -1.222649,0.3222521 -1.506725,0.4374535 -0.06098,0.024729 -0.06633,0.1134744 -0.06633,1.0990828 0,1.2182987 0.03201,1.1169335 -0.353721,1.1201447 -0.128594,0.00106 -0.350396,0.0149 -0.492894,0.03073 l -0.259087,0.028784 z m 19.517492,0.037261 C 30.080855,7.4329843 29.689627,6.8930077 29.570229,6.0062619 c -0.01962,-0.1457416 -0.04753,-0.1891505 -0.191694,-0.298191 -0.0928,-0.07019 -0.168728,-0.1426836 -0.168728,-0.1610964 0,-0.018414 0.05848,-0.033478 0.129961,-0.033478 0.153943,0 0.249089,-0.082197 0.249089,-0.2151901 0,-0.183419 0.121096,-0.5634677 0.272308,-0.8546164 0.559029,-1.0763763 1.791966,-1.4301802 2.919374,-0.837744 0.252364,0.1326132 0.678651,0.4772093 0.636726,0.514706 -0.09407,0.084133 -0.91752,0.6726491 -0.941168,0.6726491 -0.01696,0 -0.149016,-0.094701 -0.293458,-0.2104467 -0.563593,-0.4516228 -1.1343,-0.6376244 -1.512845,-0.4930571 -0.353513,0.1350084 -0.564211,0.535795 -0.542591,1.0321174 l 0.01128,0.2589141 0.208478,-0.00647 c 0.114663,-0.00356 0.472866,-0.0245 0.796004,-0.04654 0.762932,-0.052038 2.73498,-0.1294328 2.827825,-0.1109812 0.01246,0.00248 -0.0122,0.012197 -0.06585,0.027196 -0.538488,0.1505495 -0.131403,0.9198819 -0.306672,0.9217122 -0.173046,0.00181 0.259145,-0.9380078 -0.370531,-0.7692867 -0.441773,0.1183726 -1.011115,0.2142894 -1.250865,0.2741301 -0.539295,0.1346066 -1.516201,0.4461832 -1.516201,0.483581 0,0.066707 0.367558,0.386275 0.565828,0.4919525 0.680805,0.3628638 1.41897,0.2862666 2.317775,-0.2405083 0.125768,-0.073711 0.242965,-0.1340204 0.260436,-0.1340204 0.01748,0 0.0436,0.046907 0.05806,0.1042389 0.02245,0.088998 0.0054,0.1223794 -0.116941,0.2283114 -0.432471,0.3746086 -1.179612,0.8032595 -1.663721,0.9545115 -0.343934,0.107457 -0.877024,0.1355331 -1.143489,0.060224 z"
       id="path1429"
       sodipodi:nodetypes="sssscscccssscssscscscsssssssssccsssscssscsscssssssssssssssssssssssssccssscssscscscsssccssssccsssssssssssscsscccssssscscsczcscsscssssssccsssssssssssccssssssssscssscssscsscccssssscscsscccsscsccssssssscscscsssscssscssssssscsssscsssccssssscssscccsssssscccscccsscccscssssscscccsscscssccssssscsssccccssccssscssssssssssscssssssscsccssssssssssssscsssssssssssscsss" />
    <path
       style="fill:#000000;fill-opacity:1;stroke:none;stroke-width:0.105833;stroke-miterlimit:4;stroke-dasharray:none;stroke-opacity:1"
       d="M 0,8.0314799 C 0.71330276,8.018675 1.4870819,7.7167045 2.2454096,7.149083 2.7473695,6.7733572 2.838526,6.6817672 3.4265793,5.9622822 4.7502505,4.3427666 5.9229195,3.4681149 6.199342,3.406278 L 8.0154776,3 c 0,0 1.5189628,0.2964466 1.7216728,0.6937904 0.102336,0.2005951 0.06008,0.2995744 -0.17687,0.4142792 C 9.4630204,4.1551516 9.3328284,4.251324 9.270963,4.3217862 9.1611561,4.4468486 9.1579114,4.4632648 9.1346931,5.0111562 8.5772684,6.4883984 8.7240504,6.1071366 8.3584606,6.7183709 8.4688039,6.1741204 8.4264268,5.594477 8.3859787,5.3279544 L 8.357992,5.1435563 8.1698836,5.6869018 C 7.7915479,6.7797087 6.8312975,8.4753034 6.3412201,8.9159249 6.0847904,9.1464781 5.5254486,9.4796327 4.6497224,9.923415 l -0.6951505,0.352274 -0.5524324,0.02 -0.5524324,0.02 -0.5559674,-0.274462 C 1.6978,9.7470329 1.2829194,9.4960109 0.99168946,9.2534264 L 0.81011026,9.1021767 Z M 3.9964863,9.649748 C 4.7691469,9.390884 5.5718395,8.9246659 5.994014,8.4895509 6.5943786,7.8707819 7.2636172,6.4849339 7.6474772,5.0655823 7.6996693,4.872597 7.7424162,4.6648071 7.7424707,4.6038272 L 7.7425872,4.4929545 7.537906,4.5206646 C 7.0897342,4.5813376 6.2567932,4.8741131 5.7932407,5.1339081 5.5450892,5.272982 5.0135012,5.6315477 5.0135012,5.6598557 c 0,0.010573 0.052525,0.079046 0.1167221,0.1521626 0.3645333,0.415181 0.4067585,0.9817128 0.1164466,1.5623501 C 4.8906241,8.0864762 3.9278879,8.480611 3.0820919,8.2605286 2.7859065,8.183459 2.681503,8.1138704 2.6118083,7.9470691 L 2.5558469,7.8131318 2.4355706,7.9501179 C 2.2865872,8.1198013 1.7881107,8.535289 1.5147841,8.7176079 L 1.310464,8.853897 1.3985394,8.9366397 C 1.539638,9.0691948 2.1036729,9.3948949 2.4311677,9.5329271 3.1527826,9.8370725 3.3855329,9.8544423 3.9965039,9.649748 Z M 3.2468111,7.6124322 c 0.091989,-0.086421 0.1207227,-0.2426685 0.052391,-0.2848997 -0.052396,-0.032382 -0.2593135,0.080086 -0.2888237,0.1569876 -0.013321,0.03471 -0.024217,0.096765 -0.024217,0.1378967 0,0.103369 0.1459392,0.09778 0.26065,-0.00999 z"
       id="path1437"
       sodipodi:nodetypes="cssscsssccscssscccsscccssccssssssscsscssccssssss" />
    <path
       style="fill:#9c0000;fill-opacity:1;stroke-width:1.00013;stroke-miterlimit:4;stroke-dasharray:none"
       d="M 12.411143,10.000455 11.519189,9.5970354 C 11.281626,9.4895887 10.547264,9.2409863 9.3945034,9.2859408 8.3522657,9.3265853 7.5207787,9.1318771 7.5207787,9.1134641 c 0,-0.01841 0.9571402,-0.018428 1.4432166,-0.024698 2.9321857,-0.038044 5.8868497,-0.070545 8.8695197,-0.078802 3.834934,0.012867 8.057467,0.014863 11.154796,0.014705 8.472339,-5.864e-4 30.371934,0.055021 31.402967,0.079734 0.02581,6.209e-4 0.130197,-0.00184 0.03499,0.00235 -0.226014,0.00992 0.242311,1.2506022 -0.06949,1.2566692 -0.304073,0.0059 0.08513,-1.2557732 -0.08214,-1.2498676 -0.727678,0.025692 -3.993754,0.069856 -8.134905,0.120359 -4.977551,0.060703 -11.228445,0.1460933 -13.890858,0.189734 -5.988882,0.098237 -16.837402,0.3813245 -16.837402,0.3813245 z"
       id="path1429-3"
       sodipodi:nodetypes="csssacccssssscc" />
    <ellipse
       style="fill:#9c0000;fill-opacity:1;stroke:none;stroke-width:1.35107;stroke-linecap:square;paint-order:markers fill stroke;stop-color:#000000"
       id="path1431"
       cx="8.3662863"
       cy="-0.93249756"
       rx="0.21314089"
       ry="0.27403718"
       transform="matrix(0.28441671,0.95870075,-0.83840341,0.54505021,0,0)" />
  </g>
</svg>
