<?xml version="1.0" encoding="UTF-8" standalone="no"?>
<svg
   xmlns:dc="http://purl.org/dc/elements/1.1/"
   xmlns:cc="http://creativecommons.org/ns#"
   xmlns:rdf="http://www.w3.org/1999/02/22-rdf-syntax-ns#"
   xmlns:svg="http://www.w3.org/2000/svg"
   xmlns="http://www.w3.org/2000/svg"
   xmlns:sodipodi="http://sodipodi.sourceforge.net/DTD/sodipodi-0.dtd"
   xmlns:inkscape="http://www.inkscape.org/namespaces/inkscape"
   inkscape:version="1.0 (4035a4fb49, 2020-05-01)"
   sodipodi:docname="hpddd.svg"
   id="svg4"
   version="1.1"
   viewBox="0 0 512 512">
  <metadata
     id="metadata10">
    <rdf:RDF>
      <cc:Work
         rdf:about="">
        <dc:format>image/svg+xml</dc:format>
        <dc:type
           rdf:resource="http://purl.org/dc/dcmitype/StillImage" />
        <dc:title />
      </cc:Work>
    </rdf:RDF>
  </metadata>
  <defs
     id="defs8" />
  <sodipodi:namedview
     inkscape:current-layer="svg4"
     inkscape:window-maximized="1"
     inkscape:window-y="-8"
     inkscape:window-x="-8"
     inkscape:cy="433.3949"
     inkscape:cx="670.25127"
     inkscape:zoom="0.85171832"
     showgrid="false"
     id="namedview6"
     inkscape:window-height="1017"
     inkscape:window-width="1920"
     inkscape:pageshadow="2"
     inkscape:pageopacity="0"
     guidetolerance="10"
     gridtolerance="10"
     objecttolerance="10"
     borderopacity="1"
     bordercolor="#666666"
     pagecolor="#ffffff"
     inkscape:document-rotation="0" />
  <path
     d="M 246 13.755859 A 242.45105 242.45105 0 0 0 13.755859 246 L 76.628906 246 C 81.649414 154.84741 154.84678 81.647016 246 76.626953 L 246 13.755859 z M 266 13.755859 L 266 76.626953 C 357.1471 81.647662 430.30973 154.85104 435.33203 246 L 498.24414 246 A 242.45105 242.45105 0 0 0 266 13.755859 z M 246 96.662109 C 165.68863 101.60718 101.60708 165.68937 96.662109 246 L 157.86328 246 C 162.5642 199.60069 199.6005 162.55965 246 157.85938 L 246 96.662109 z M 266 96.662109 L 266 157.85938 C 312.39118 162.56064 349.39074 199.60455 354.0918 246 L 415.33789 246 C 410.39246 165.6896 346.31135 101.60682 266 96.662109 z M 246 177.98047 C 210.47496 182.45565 182.47504 210.47548 177.99805 246 L 227.78125 246 A 29.939478 29.939478 0 0 1 246 227.7793 L 246 177.98047 z M 266 177.98047 L 266 227.78125 A 29.939478 29.939478 0 0 1 284.21875 246 L 334.00195 246 C 329.52455 210.47567 301.52526 182.45504 266 177.98047 z M 13.755859 266 A 242.45105 242.45105 0 0 0 246 498.24414 L 246 435.37305 C 154.84678 430.35299 81.649413 357.15259 76.628906 266 L 13.755859 266 z M 96.662109 266 C 101.60708 346.31063 165.68863 410.39285 246 415.33789 L 246 354.14062 C 199.6005 349.44035 162.5642 312.39931 157.86328 266 L 96.662109 266 z M 177.99805 266 C 182.47504 301.52452 210.47496 329.54435 246 334.01953 L 246 284.21875 A 29.939478 29.939478 0 0 1 227.78125 266 L 177.99805 266 z M 284.21875 266 A 29.939478 29.939478 0 0 1 266 284.2207 L 266 334.01953 C 301.52504 329.54435 329.52496 301.52452 334.00195 266 L 284.21875 266 z M 354.08984 266 C 349.38854 312.39509 312.39082 349.43922 266 354.14062 L 266 415.33789 C 346.31137 410.39282 410.39292 346.31063 415.33789 266 L 354.08984 266 z M 435.33203 266 C 430.30963 357.14879 357.14695 430.35224 266 435.37305 L 266 498.24414 A 242.45105 242.45105 0 0 0 498.24414 266 L 435.33203 266 z "
     style="fill:#dddddd;fill-opacity:1;stroke:none;stroke-width:10;stroke-linecap:round;stroke-linejoin:round;stroke-miterlimit:4;stroke-dasharray:none;stroke-dashoffset:14;stroke-opacity:1"
     id="path830" />
</svg>
