<?xml version="1.0" encoding="UTF-8" standalone="no"?>
<svg
   xmlns:dc="http://purl.org/dc/elements/1.1/"
   xmlns:cc="http://creativecommons.org/ns#"
   xmlns:rdf="http://www.w3.org/1999/02/22-rdf-syntax-ns#"
   xmlns:svg="http://www.w3.org/2000/svg"
   xmlns="http://www.w3.org/2000/svg"
   xmlns:sodipodi="http://sodipodi.sourceforge.net/DTD/sodipodi-0.dtd"
   xmlns:inkscape="http://www.inkscape.org/namespaces/inkscape"
   width="297mm"
   height="210mm"
   viewBox="0 0 297 210"
   version="1.1"
   id="svg8"
   inkscape:version="1.0.1 (3bc2e813f5, 2020-09-07)"
   sodipodi:docname="DSA5_RollFlow.svg">
  <defs
     id="defs2">
    <marker
       style="overflow:visible;"
       id="Arrow1Mend"
       refX="0.0"
       refY="0.0"
       orient="auto"
       inkscape:stockid="Arrow1Mend"
       inkscape:isstock="true">
      <path
         transform="scale(0.4) rotate(180) translate(10,0)"
         style="fill-rule:evenodd;stroke:#780f1e;stroke-width:1pt;stroke-opacity:1;fill:#780f1e;fill-opacity:1"
         d="M 0.0,0.0 L 5.0,-5.0 L -12.5,0.0 L 5.0,5.0 L 0.0,0.0 z "
         id="path963" />
    </marker>
    <marker
       style="overflow:visible;"
       id="Arrow1Lend"
       refX="0.0"
       refY="0.0"
       orient="auto"
       inkscape:stockid="Arrow1Lend"
       inkscape:isstock="true">
      <path
         transform="scale(0.8) rotate(180) translate(12.5,0)"
         style="fill-rule:evenodd;stroke:#780f1e;stroke-width:1pt;stroke-opacity:1;fill:#780f1e;fill-opacity:1"
         d="M 0.0,0.0 L 5.0,-5.0 L -12.5,0.0 L 5.0,5.0 L 0.0,0.0 z "
         id="path957" />
    </marker>
    <marker
       style="overflow:visible"
       id="Arrow1Mend-1"
       refX="0"
       refY="0"
       orient="auto"
       inkscape:stockid="Arrow1Mend"
       inkscape:isstock="true">
      <path
         transform="matrix(-0.4,0,0,-0.4,-4,0)"
         style="fill:#780f1e;fill-opacity:1;fill-rule:evenodd;stroke:#780f1e;stroke-width:1pt;stroke-opacity:1"
         d="M 0,0 5,-5 -12.5,0 5,5 Z"
         id="path963-9" />
    </marker>
    <marker
       style="overflow:visible"
       id="Arrow1Mend-1-7"
       refX="0"
       refY="0"
       orient="auto"
       inkscape:stockid="Arrow1Mend"
       inkscape:isstock="true">
      <path
         transform="matrix(-0.4,0,0,-0.4,-4,0)"
         style="fill:#780f1e;fill-opacity:1;fill-rule:evenodd;stroke:#780f1e;stroke-width:1pt;stroke-opacity:1"
         d="M 0,0 5,-5 -12.5,0 5,5 Z"
         id="path963-9-8" />
    </marker>
    <marker
       style="overflow:visible"
       id="Arrow1Mend-1-7-5"
       refX="0"
       refY="0"
       orient="auto"
       inkscape:stockid="Arrow1Mend"
       inkscape:isstock="true">
      <path
         transform="matrix(-0.4,0,0,-0.4,-4,0)"
         style="fill:#780f1e;fill-opacity:1;fill-rule:evenodd;stroke:#780f1e;stroke-width:1pt;stroke-opacity:1"
         d="M 0,0 5,-5 -12.5,0 5,5 Z"
         id="path963-9-8-6" />
    </marker>
    <marker
       style="overflow:visible"
       id="Arrow1Mend-1-7-5-2"
       refX="0"
       refY="0"
       orient="auto"
       inkscape:stockid="Arrow1Mend"
       inkscape:isstock="true">
      <path
         transform="matrix(-0.4,0,0,-0.4,-4,0)"
         style="fill:#780f1e;fill-opacity:1;fill-rule:evenodd;stroke:#780f1e;stroke-width:1pt;stroke-opacity:1"
         d="M 0,0 5,-5 -12.5,0 5,5 Z"
         id="path963-9-8-6-9" />
    </marker>
    <marker
       style="overflow:visible"
       id="Arrow1Mend-1-8"
       refX="0"
       refY="0"
       orient="auto"
       inkscape:stockid="Arrow1Mend"
       inkscape:isstock="true">
      <path
         transform="matrix(-0.4,0,0,-0.4,-4,0)"
         style="fill:#780f1e;fill-opacity:1;fill-rule:evenodd;stroke:#780f1e;stroke-width:1pt;stroke-opacity:1"
         d="M 0,0 5,-5 -12.5,0 5,5 Z"
         id="path963-9-3" />
    </marker>
  </defs>
  <sodipodi:namedview
     id="base"
     pagecolor="#ffffff"
     bordercolor="#666666"
     borderopacity="1.0"
     inkscape:pageopacity="0.0"
     inkscape:pageshadow="2"
     inkscape:zoom="2.8237469"
     inkscape:cx="163.1421"
     inkscape:cy="-4.7528991"
     inkscape:document-units="mm"
     inkscape:current-layer="layer1"
     inkscape:document-rotation="0"
     showgrid="false"
     inkscape:window-width="1920"
     inkscape:window-height="1017"
     inkscape:window-x="-8"
     inkscape:window-y="-8"
     inkscape:window-maximized="1" />
  <metadata
     id="metadata5">
    <rdf:RDF>
      <cc:Work
         rdf:about="">
        <dc:format>image/svg+xml</dc:format>
        <dc:type
           rdf:resource="http://purl.org/dc/dcmitype/StillImage" />
        <dc:title></dc:title>
      </cc:Work>
    </rdf:RDF>
  </metadata>
  <g
     inkscape:label="Ebene 1"
     inkscape:groupmode="layer"
     id="layer1">
    <rect
       style="fill:#6f0f1d;fill-opacity:1;stroke:none;stroke-width:0.523025;stroke-opacity:1;paint-order:markers fill stroke;stop-color:#000000"
       id="rect871"
       width="297.23843"
       height="13.229167"
       x="-0.26726952"
       y="0" />
    <rect
       style="fill:none;stroke:#000000;stroke-width:0.793344;stroke-opacity:1;paint-order:markers fill stroke;stop-color:#000000"
       id="rect833"
       width="58.711929"
       height="36.248322"
       x="4.9512849"
       y="39.318241" />
    <g
       id="g1448"
       transform="matrix(0.2296808,0,0,0.2257069,1.0200677,-0.93958992)">
      <path
         sodipodi:nodetypes="ccccc"
         d="m 10.376554,47.785275 c 27.66889,-26.481818 37.0928,-29.853322 43.65134,-29.595357 l -0.7584,6.600741 c -29.25177,9.921527 -35.49908,17.977826 -38.75409,25.791506 z"
         style="mix-blend-mode:normal;fill:#ab1212;fill-opacity:0.749035;stroke:none;stroke-width:5.29167;stroke-linecap:round;stroke-linejoin:round;stroke-dashoffset:14"
         id="rect1443" />
      <path
         sodipodi:nodetypes="cssscsssccscssscccsscccssccssssssscsscssccssssss"
         id="path1437"
         d="m 1.4831442,42.203975 c 4.8408,-0.0869 10.0920198,-2.13621 15.2383798,-5.98835 3.40653,-2.549848 4.02516,-3.17142 8.01596,-8.054175 8.98304,-10.990776 16.94131,-16.926564 18.81724,-17.346218 l 12.32513,-2.7571888 c 0,0 10.30838,2.0118228 11.68406,4.7083798 0.6945,1.361331 0.40772,2.03305 -1.20032,2.811489 -0.66004,0.319518 -1.54359,0.97219 -1.96344,1.450379 -0.7452,0.848731 -0.76722,0.960139 -0.92479,4.678381 -3.78294,10.025244 -2.78681,7.437826 -5.26787,11.585943 0.74884,-3.693534 0.46125,-7.62726 0.18675,-9.436005 l -0.18993,-1.25141 -1.27659,3.687392 c -2.56756,7.416289 -9.08426,18.923373 -12.41015,21.913633 -1.74025,1.56464 -5.5362,3.82558 -11.47928,6.83729 l -4.71761,2.39069 -3.74906,0.13573 -3.74906,0.13574 -3.77305,-1.86263 c -4.04432,-1.99654 -6.85989,-3.70009 -8.8363098,-5.34638 l -1.23228,-1.02645 z m 27.1219898,10.98231 c 5.24363,-1.75677 10.69107,-4.92074 13.55614,-7.87363 4.07435,-4.19925 8.61611,-13.604251 11.22116,-23.236622 0.3542,-1.309687 0.6443,-2.719845 0.64467,-3.133682 l 7.9e-4,-0.752433 -1.38906,0.188053 c -3.0415,0.411755 -8.69422,2.398664 -11.8401,4.161752 -1.68407,0.943819 -5.29167,3.377211 -5.29167,3.569322 0,0.07175 0.35646,0.536445 0.79213,1.032645 2.47389,2.817609 2.76045,6.662354 0.79026,10.602825 -2.41629,4.83269 -8.94986,7.50747 -14.68982,6.01389 -2.01005,-0.52303 -2.71858,-0.99529 -3.19156,-2.12728 l -0.37978,-0.90896 -0.81625,0.92965 c -1.01107,1.15155 -4.39396,3.97124 -6.24888,5.20854 l -1.38661,0.92492 0.59772,0.56153 c 0.95756,0.89958 4.78536,3.10993 7.00789,4.04668 4.89721,2.06407 6.47676,2.18195 10.62309,0.7928 z m -5.08764,-13.82616 c 0.62428,-0.58649 0.81928,-1.64686 0.35555,-1.93346 -0.35558,-0.21976 -1.75982,0.5435 -1.96009,1.06539 -0.0904,0.23556 -0.16435,0.65669 -0.16435,0.93583 0,0.70151 0.99041,0.66358 1.76889,-0.0678 z"
         style="fill:#4b0000;fill-opacity:1;stroke-width:0.264583" />
    </g>
    <text
       xml:space="preserve"
       style="font-style:normal;font-variant:normal;font-weight:normal;font-stretch:normal;font-size:12.7px;line-height:1.25;font-family:Marlett;-inkscape-font-specification:Marlett;letter-spacing:0px;word-spacing:0px;fill:#000000;fill-opacity:1;stroke:none;stroke-width:1.16424"
       x="13.238768"
       y="61.231319"
       id="text851"><tspan
         sodipodi:role="line"
         id="tspan849"
         x="13.238768"
         y="61.231319"
         style="font-style:normal;font-variant:normal;font-weight:normal;font-stretch:normal;font-size:12.7px;font-family:Andalus;-inkscape-font-specification:Andalus;stroke-width:1.16424">Key Roll</tspan></text>
    <text
       xml:space="preserve"
       style="font-style:normal;font-variant:normal;font-weight:normal;font-stretch:normal;font-size:13.8197px;line-height:1.25;font-family:Marlett;-inkscape-font-specification:Marlett;letter-spacing:0px;word-spacing:0px;fill:#000000;fill-opacity:1;stroke:none;stroke-width:0.863735"
       x="4.7668509"
       y="35.46817"
       id="text851-5"><tspan
         sodipodi:role="line"
         id="tspan849-2"
         x="4.7668509"
         y="35.46817"
         style="font-style:normal;font-variant:normal;font-weight:normal;font-stretch:normal;font-family:Andalus;-inkscape-font-specification:Andalus;stroke-width:0.863735">Key Result</tspan></text>
    <path
       style="fill:#3f0000;fill-opacity:1;stroke-width:0;stroke:none;stroke-opacity:1;stroke-miterlimit:4;stroke-dasharray:none"
       d="M 77.206163,8.8799801 C 76.304513,8.0239914 75.344837,7.320494 74.499904,6.8961423 c -0.252783,-0.126953 -0.471239,-0.230825 -0.48547,-0.230825 -0.01424,0 -0.03235,0.3562667 -0.04034,0.7917027 l -0.01449,0.7917024 -0.733083,0.2753437 c -0.403193,0.15144 -0.740406,0.256223 -0.749373,0.23285 -0.0089,-0.02337 0.0097,-0.214893 0.04158,-0.4256017 0.09152,-0.6058627 0.126623,-2.6013216 0.05869,-3.336557 -0.06949,-0.7522909 -0.148297,-0.9672567 -0.499562,-1.3627672 -0.135932,-0.1530489 -0.227631,-0.297761 -0.203768,-0.3215834 0.0456,-0.045537 1.243547,-0.2761363 1.758258,-0.3384615 l 0.301089,-0.036461 v 0.1631219 c 0,0.1257162 0.02298,0.1631224 0.100125,0.1631224 0.05509,0 0.670149,-0.1292002 1.366855,-0.2871099 l 1.266724,-0.2871105 0.102189,0.1169304 c 0.1649,0.188705 0.410533,0.7317034 0.410573,0.9076513 0,0.5830543 -0.500104,1.1422192 -1.470488,1.643673 l -0.464604,0.2400863 0.342537,0.4103624 c 0.502217,0.6016667 1.191028,1.5251901 1.774152,2.3786978 0.500614,0.7327464 0.510633,0.7531964 0.414448,0.8466754 -0.09589,0.0932 -0.111335,0.08366 -0.569826,-0.3516077 z M 74.381688,5.4834087 C 75.21814,5.0877046 75.754422,4.1342663 75.383259,3.7027604 75.277274,3.579547 75.224606,3.5622949 74.961651,3.5646578 c -0.165267,0.00149 -0.467448,0.030859 -0.671504,0.065281 l -0.371029,0.06258 0.03339,0.3946793 c 0.01836,0.2170736 0.03339,0.6503208 0.03339,0.9627705 0,0.3659048 0.0198,0.5680917 0.05558,0.5680917 0.03062,0 0.183691,-0.060594 0.340244,-0.134652 z M 87.783466,8.8799801 C 86.881821,8.0239914 85.922135,7.320489 85.077202,6.8961423 c -0.545168,-0.273797 -0.170348,0.6247094 -0.332191,0.6247094 -0.157477,0 0.157978,-0.8555344 -0.153274,-0.8555344 -0.01424,0 -0.03235,0.3562667 -0.04034,0.7917027 l -0.01449,0.7917024 -0.733077,0.2753437 c -0.403199,0.15144 -0.740412,0.256223 -0.749379,0.23285 -0.0089,-0.02337 0.01007,-0.214893 0.04233,-0.4256017 0.08448,-0.5522927 0.135246,-2.975068 0.06234,-2.975068 -0.108178,0 -2.379227,0.4776424 -2.882472,0.6062352 -0.69149,0.176696 -1.997078,0.5985927 -1.997078,0.6453497 0,0.09215 0.507755,0.5336087 0.781657,0.6795937 0.940472,0.5012687 1.960195,0.3954547 3.201821,-0.332243 0.173738,-0.1018267 0.33564,-0.1851387 0.359776,-0.1851387 0.02412,0 0.06023,0.0648 0.0802,0.143998 0.04317,0.1709727 -0.09295,0.3046317 -0.807454,0.7930794 -1.493899,1.0212544 -2.827031,1.2633044 -3.768219,0.6841877 -0.375545,-0.231075 -0.05995,0.5794647 -0.248059,0.5794647 -0.188901,0 0.138899,-0.5589747 -0.216203,-0.9775967 -0.320064,-0.3773107 -0.520745,-0.9001004 -0.613591,-1.5896731 -0.03796,-0.2814447 0.0093,0.113501 -0.0679,0.113501 -0.104997,0 -0.0025,-0.3783467 -0.196915,-0.5254287 -0.128195,-0.09696 -0.233079,-0.1971061 -0.233079,-0.2225422 0,-0.025436 0.08079,-0.046247 0.179533,-0.046247 0.21266,0 0.344096,-0.1135487 0.344096,-0.2972682 0,-0.2533792 0.167281,-0.7783871 0.37617,-1.1805865 0.772253,-1.4869309 2.475462,-1.9756839 4.032891,-1.1572785 0.34862,0.183195 0.93751,0.6592271 0.879588,0.7110268 -0.129957,0.1162228 -1.267484,0.9292124 -1.300155,0.9292124 -0.13212,0 0.04496,0.554633 -0.06998,0.554633 -0.155442,0 0.204125,-0.4130227 -0.335412,-0.8453493 -0.778555,-0.6238818 -1.566945,-0.8808282 -2.089874,-0.6811199 -0.296871,0.1133756 -0.580613,0.438637 -0.682782,0.7826917 -0.08747,0.2945173 -0.104228,0.9518038 -0.0255,1.000448 0.02848,0.017625 0.328941,0.00775 0.667623,-0.021942 0.706928,-0.061974 2.210046,-0.1405444 3.654443,-0.1910242 l 0.9965,-0.034829 -0.04143,-0.4716993 c -0.04939,-0.5630052 -0.233698,-0.7573425 -0.482174,-1.1877141 -0.325885,-0.564445 0.07091,0.8235365 -0.161809,0.8235365 -0.126443,0 -0.04198,-0.1663527 -0.04198,-1.14512 0.04555,-0.045562 1.243547,-0.2761363 1.758259,-0.3384615 l 0.301089,-0.036461 v 0.1631219 c 0,0.1257163 0.02297,0.1631224 0.100124,0.1631224 0.0551,0 0.670154,-0.1292001 1.36685,-0.2871099 l 1.26672,-0.2871105 0.102189,0.1169304 c 0.164905,0.188705 0.410532,0.7317034 0.410572,0.9076513 0,0.1457636 -0.01573,0.2978876 -0.0933,0.432283 -0.246437,0.4268421 0.06223,2.5421584 -0.116108,2.5421584 -0.194766,0 0.102343,-2.38629 -0.161942,-2.1220047 C 87.255184,4.6951444 87.10916,4.8373278 86.925811,4.9693767 86.742467,5.1014251 86.529262,5.2303955 86.286666,5.35576 l -0.4646,0.2400862 0.342537,0.4103624 c 0.502217,0.6016667 1.191029,1.5251901 1.774152,2.3786978 0.500615,0.7327464 0.509288,0.7518364 0.414448,0.8466754 -0.269208,0.269206 -0.02814,0.547469 -0.148937,0.547469 -0.175196,0 0.252709,-0.259592 -0.420888,-0.8990767 z M 84.958991,5.4834087 C 85.795444,5.0877046 86.331725,4.1342663 85.960552,3.7027604 85.854572,3.579547 85.801914,3.5646578 85.538949,3.5646578 c -0.521629,0 -0.133093,0.5495464 -0.321206,0.5495464 -0.204338,0 0.207376,-0.578327 -0.350298,-0.4842653 l -0.371024,0.06258 0.03339,0.3946793 c 0.01836,0.2170736 0.03334,0.6503208 0.03334,0.9627705 0,0.3659048 0.0198,0.5680917 0.05563,0.5680917 0.03062,0 0.183696,-0.060594 0.340239,-0.134652 z m -59.65949,3.4340394 c -0.517534,-0.234889 -0.4944,-0.8987337 0.07022,-2.0149338 0.277369,-0.5483357 0.2782,-0.5514327 0.164176,-0.6116407 -0.221378,-0.116893 -0.718114,-0.523564 -0.691708,-0.5662905 0.01468,-0.023753 0.313979,-0.074083 0.665104,-0.1118348 0.448016,-0.048172 0.657805,-0.092749 0.70345,-0.1494802 0.03578,-0.04446 0.212373,-0.2693467 0.392443,-0.4997435 0.180072,-0.2303963 0.765289,-0.8625131 1.300485,-1.4047032 l 0.973083,-0.9858001 0.269508,0.9334378 c 0.148229,0.5133901 0.342358,1.133725 0.431397,1.3785213 l 0.16189,0.4450841 0.850736,-0.01052 0.850736,-0.01052 -0.752223,0.1518451 c -0.548381,0.1106976 -0.40994,0.2662409 -0.538455,0.2662409 -0.144365,0 -0.114604,-0.213559 -0.238272,-0.089891 -0.0866,0.086598 0.539366,1.1147138 0.895546,1.4708945 0.179084,0.179083 0.676784,0.4997397 0.775661,0.4997397 0.0082,0 0.01701,-0.3122137 0.01966,-0.6938074 0.0041,-0.5927807 0.02516,-0.7608797 0.144475,-1.1544222 0.164539,-0.5426932 0.377691,-0.9839491 0.697395,-1.4437081 0.127525,-0.1833901 0.22459,-0.3407098 0.215701,-0.3495999 -0.0089,-0.00889 -0.187936,0.055552 -0.397879,0.1431977 l -0.381715,0.1593607 c -0.175516,0.07978 0.0107,0.5271207 -0.118951,0.5271207 -0.145432,0 0.11605,-0.4822983 -0.118951,-0.6179764 C 31.376179,4.0239677 30.711794,3.6436199 30.506777,3.4283827 L 30.357979,3.272167 30.506777,3.241238 c 0.286525,-0.059548 1.46645,-0.188176 2.426583,-0.2645325 1.01695,-0.080875 4.076133,-0.211864 4.111932,-0.1760656 0.01146,0.011457 -0.361195,0.099623 -0.828114,0.1959273 -1.56233,0.3222365 -0.195175,2.2829522 -0.867824,2.2829522 -0.680465,0 0.596556,-2.2518786 -0.894335,-1.8801737 -1.04404,0.2602973 -1.147438,0.3247076 -1.418254,0.8834631 -0.291966,0.602396 -0.337229,1.5622696 -0.103166,2.1878575 0.478039,1.2776754 1.691276,1.7131561 3.20728,1.1512264 0.314692,-0.116644 0.358822,-0.148809 0.335278,-0.2443627 -0.01492,-0.06052 -0.063,-0.251418 -0.106853,-0.424215 -0.04386,-0.1727977 -0.09379,-0.4202127 -0.11096,-0.5498097 -0.02672,-0.2016207 -0.06486,-0.2610807 -0.264304,-0.4119277 -0.128197,-0.09696 -0.233085,-0.197107 -0.233085,-0.2225431 0,-0.025436 0.08079,-0.046247 0.17953,-0.046247 0.212662,0 0.344099,-0.1135487 0.344099,-0.2972682 0,-0.2533792 0.167283,-0.7783871 0.376171,-1.1805865 0.772255,-1.4869304 2.475464,-1.9756834 4.032892,-1.1572785 0.348621,0.1831945 0.937504,0.6592271 0.879587,0.7110263 -0.129952,0.1162233 -1.267485,0.9292129 -1.300152,0.9292129 -0.02343,0 -0.205854,-0.1308222 -0.405389,-0.2907158 C 39.478413,4.125237 39.092408,3.8857105 38.726893,3.787771 38.442201,3.711488 38.468021,3.9432875 38.215485,3.9341885 37.968952,3.9253085 38.018294,3.6642206 37.777816,3.7560583 37.289462,3.9425581 36.998402,4.4962185 37.028266,5.1818494 l 0.01558,0.3576697 0.287996,-0.00894 c 0.158397,-0.00491 0.653226,-0.033841 1.09962,-0.064292 1.053931,-0.071886 3.778163,-0.1788021 3.906418,-0.1533119 0.05464,0.010857 -0.416185,0.08461 -1.02646,0.2481328 -0.917611,0.245873 0.02525,1.377018 -0.484643,1.377018 -0.423173,0 0.361466,-1.3575855 -0.487343,-1.1715676 -0.313195,0.068637 -0.590392,0.1319072 -0.755989,0.1732392 -0.186249,0.04649 -0.41028,0.108257 -0.641563,0.175562 -0.259588,0.07554 -0.22004,0.3127787 -0.348545,0.3127787 -0.165666,0 -0.149764,-0.1635337 -0.336522,-0.1039687 -0.215253,0.06865 -0.407224,0.1331097 -0.545382,0.1836327 -0.138158,0.05052 -0.222503,0.08711 -0.222503,0.100025 0,0.09215 0.507754,0.5336087 0.781651,0.6795937 0.940475,0.5012687 1.960195,0.3954557 3.201824,-0.332243 0.17374,-0.1018267 0.335638,-0.1851387 0.359772,-0.1851387 0.02413,0 0.06023,0.0648 0.08021,0.143998 0.04313,0.1709727 -0.09295,0.3046317 -0.807457,0.7930794 -0.569995,0.3896577 -0.211364,0.6061077 -0.363461,0.6061077 -0.114195,0 0.25091,-0.5191407 -0.355745,-0.168889 -1.172802,0.6771177 -2.248771,0.7089907 -3.049016,0.246969 -0.397297,-0.22938 -0.02418,0.6581434 -0.238366,0.6581434 -0.227517,0 0.170721,-0.5902504 -0.200006,-1.0233664 L 36.725644,7.8243287 36.020759,8.1766794 C 34.574725,8.8995071 33.519087,9.0822308 32.655611,8.7591621 32.376022,8.6545551 31.989693,8.3406624 31.831261,8.0893764 l -0.07606,-0.1206417 -0.602172,0.2859507 c -0.732924,0.3480387 -1.108992,0.4749227 -1.280232,0.4319437 -0.09027,-0.02266 -0.182865,-0.08291 -0.276826,-0.1790847 -0.09396,-0.09617 -0.189284,-0.228265 -0.285001,-0.394589 -0.09572,-0.1663237 -0.191828,-0.3668817 -0.287363,-0.5999897 -0.201454,-0.4915537 0.0318,0.6846487 -0.14275,0.6846487 -0.16954,0 0.125488,-0.6335337 -0.14116,-1.4799371 -0.122484,-0.3887947 -0.236346,-0.7231637 -0.253027,-0.7430437 -0.02029,-0.02418 -0.252638,0.03345 -0.559314,0.115625 -0.785922,0.210588 -0.0014,1.2193534 -0.418542,1.3311274 -0.371639,0.09958 0.324982,-1.2686784 -0.431423,-1.0660004 -0.368485,0.09874 -0.663154,0.2388167 -0.712688,0.2883507 -0.09401,0.09401 -0.156718,0.5864627 -0.114188,0.8967484 0.06788,0.4952427 0.409259,0.8718557 0.921168,1.0162424 l 0.233865,0.06596 -0.181502,0.0745 c -0.336578,0.138158 -1.161666,0.3233 -1.431834,0.3233 -0.559086,0 0.03419,1.3706369 -0.255608,1.3706369 -0.330663,0 0.173804,-1.2737892 -0.237096,-1.4736859 l -1e-6,10e-7 z m 3.014022,-3.532634 c 0.0079,-0.00742 -0.07615,-0.3611381 -0.186665,-0.7860455 L 27.925915,3.8262095 c -0.152254,0.1477082 0.06967,0.6934214 -0.06627,0.6934214 -0.193215,0 0.135748,-0.718917 -0.144228,-0.4389411 -0.258172,0.258172 -0.550339,0.7460412 -0.778316,1.1387437 l -0.148565,0.2559088 0.755357,-0.038526 c 0.415447,-0.021188 0.761783,-0.044594 0.769635,-0.05201 z m 27.502409,3.470897 C 55.669462,8.7851711 55.328289,8.4879684 54.914318,8.0703094 54.548027,7.7007577 54.233123,7.398397 54.21453,7.398397 c -0.01861,0 -0.166606,0.1134017 -0.328911,0.2520027 -0.64451,0.5503707 -1.434885,1.0931574 -1.725747,1.1851474 -0.227303,0.07189 -0.520983,-0.3486757 -0.454586,-0.6509837 0.03032,-0.138069 0.04188,-0.143214 0.225512,-0.10055 0.550999,0.128007 0.817676,-0.0036 1.721702,-0.8498204 L 53.923946,6.980114 53.285962,6.1805926 C 52.399675,5.0698943 51.657953,4.0386218 51.666081,3.928349 51.676851,3.7823641 52.018354,3.255418 52.244878,3.0352778 l 0.206075,-0.200272 0.115696,0.147083 c 0.08343,0.106062 0.107295,0.189082 0.08558,0.2976732 -0.02551,0.1276182 0.02322,0.2195993 0.319553,0.6029988 0.406488,0.5259175 1.201473,1.4811019 1.568354,1.8843999 l 0.254719,0.2800069 0.242,-0.3323697 C 55.553811,5.0047813 55.798898,4.396867 55.748493,3.949668 55.715545,3.6571941 55.471619,3.4060553 55.126332,3.309067 L 54.899585,3.245375 55.292299,3.1224062 c 1.163786,-0.3644038 1.866228,-0.3567965 2.038849,0.022081 0.03836,0.084186 0.08582,0.1147342 0.147731,0.09509 0.132522,-0.042054 1.626064,-0.2920224 1.744801,-0.2920224 0.08002,0 0.100562,0.037439 0.100562,0.18327 0,0.1304128 0.02332,0.1832699 0.08095,0.1832699 0.04451,0 0.706834,-0.141323 1.471813,-0.3140505 l 1.390872,-0.3140502 0.112162,0.1407236 c 0.06168,0.077399 0.137142,0.1739706 0.167679,0.214605 0.04749,0.063196 0.153016,0.058096 0.729575,-0.035265 0.370736,-0.060031 0.687272,-0.095932 0.703424,-0.079781 0.01613,0.016152 0.04704,1.0681368 0.06869,2.3377464 0.02159,1.2696103 0.04993,2.3189937 0.06291,2.3319647 0.01295,0.01297 0.337089,-0.0015 0.720256,-0.03228 0.383177,-0.03072 0.901848,-0.07074 1.152607,-0.08892 l 0.455931,-0.03305 -0.12636,-0.191847 C 66.161463,7.017165 66.026703,6.5213883 66.026703,6.1902026 c 0,-1.391378 1.181327,-2.6563352 2.763417,-2.9590394 1.507623,-0.2884556 2.915484,0.4204038 3.22952,1.6260691 0.259859,0.9976802 -0.164474,2.0843107 -1.08622,2.7815694 -1.317749,0.9968274 -3.051029,1.0696194 -4.129725,0.173434 l -0.244075,-0.202781 -0.750822,0.256639 c -0.790459,0.2701907 -1.523249,0.5690837 -1.815243,0.7404164 -0.171112,0.100401 -0.178273,0.100477 -0.39588,0.0042 l -0.221611,-0.09803 -0.409039,0.1443767 -0.409039,0.144376 0.03339,-0.24335 c 0.109643,-0.7995714 0.147007,-1.6232471 0.122991,-2.7113041 -0.01469,-0.666185 -0.04888,-1.2507731 -0.0759,-1.2990844 -0.04193,-0.075001 -0.07072,-0.056727 -0.196672,0.1250276 -0.193085,0.2786148 -0.684207,0.6415745 -1.206282,0.8914897 -0.413679,0.1980237 -1.282072,0.4878067 -1.661453,0.5544257 l -0.195298,0.03429 -0.01414,1.0478664 -0.01414,1.0478654 -0.733082,0.2753677 c -0.403189,0.151453 -0.740829,0.254986 -0.750307,0.230073 -0.0095,-0.02491 0.0089,-0.213757 0.04089,-0.4196547 0.03191,-0.205899 0.04848,-0.3839377 0.03677,-0.3956437 -0.01171,-0.0117 -0.253939,0.1428677 -0.538301,0.3434947 -0.592001,0.4176807 -1.079054,0.6869887 -1.242326,0.6869287 -0.06188,-2.3e-5 -0.218535,-0.05111 -0.34813,-0.11353 z M 69.883409,7.8265527 C 70.156884,7.6870357 70.347904,7.459763 70.551349,7.031857 70.701933,6.7151333 70.713133,6.6515023 70.712612,6.1155076 70.712215,5.6945605 70.685965,5.4619938 70.615047,5.2515203 70.396939,4.6039406 69.966136,4.0262409 69.542201,3.8128437 69.302642,3.6922552 68.877491,3.6559665 68.592474,3.7317811 c -0.342428,0.091083 -0.774119,0.5463692 -0.944497,0.9961107 -0.177509,0.4685533 -0.180029,1.2755788 -0.0054,1.7803375 0.231615,0.6700957 0.691059,1.2054844 1.19606,1.3937634 0.267778,0.09983 0.772839,0.06337 1.044934,-0.07544 z M 57.910446,7.7137277 c 0.177499,-0.112099 0.113389,-3.0843704 -0.07632,-3.5384081 -0.07547,-0.1806252 -0.385523,-0.5994108 -0.443778,-0.5994108 -0.01722,0 -0.07276,0.1166962 -0.123412,0.2593252 -0.171485,0.4828208 -0.865987,1.4069273 -1.699086,2.2608106 l -0.338637,0.3470767 0.332633,0.277304 c 0.648107,0.5403047 1.276535,0.8865624 1.798794,0.9911094 0.294886,0.05903 0.458779,0.05969 0.549808,0.0022 z M 60.159677,5.462495 c 0.696121,-0.4466983 1.054155,-1.16036 0.814571,-1.6236615 -0.09021,-0.1744369 -0.215389,-0.2253126 -0.538431,-0.2188282 -0.20543,0.00412 -1.071085,0.1074127 -1.094233,0.1305628 -0.005,0.00498 0.004,0.4728609 0.02089,1.0397814 l 0.02987,1.0307644 0.255592,-0.097117 c 0.140576,-0.053414 0.370871,-0.17109 0.511764,-0.2615016 z M 20.493392,8.5797401 c 0.08126,-0.5518147 0.132111,-1.3288651 0.133342,-2.0377938 l 0.0013,-0.7779067 -0.143998,-0.111817 c -0.290029,-0.2251603 -0.01384,0.489691 -0.168285,0.489691 -0.140858,0 0.175753,-0.4629831 -0.202352,-0.8087408 -0.255044,-0.2332257 -0.246493,-0.2454473 0.219823,-0.3141815 l 0.255017,-0.037588 -0.03621,-0.3231157 C 20.504727,4.2359473 20.383923,3.972448 20.08155,3.6319917 19.945621,3.4789433 19.853926,3.3342307 19.877782,3.3104083 c 0.04583,-0.045755 1.290323,-0.2868871 1.774126,-0.3437491 l 0.285221,-0.033519 v 0.1940083 c 0,0.1605154 0.01582,0.1891798 0.09164,0.1660402 0.0504,-0.015383 0.610156,-0.1446729 1.243903,-0.2873129 0.633748,-0.1426394 1.213988,-0.2748358 1.289424,-0.2937686 0.123616,-0.031028 0.155895,-0.00447 0.326983,0.269055 0.104405,0.1669139 0.220367,0.3522893 0.189827,0.3854643 -0.184624,0.2005553 0.151825,0.9357554 -0.189808,0.9357554 -0.262405,0 0.387255,-0.9397628 -0.595635,-0.5324594 -0.761313,0.3154835 -0.785443,0.3178137 -0.785443,0.2003588 0,-0.1779407 -0.156973,-0.3412477 -0.375331,-0.390468 -0.132334,-0.029827 -0.133927,0.155327 -0.239764,0.1589691 -0.105837,0.00362 -0.114044,-0.1676508 -0.353348,-0.1416564 -0.122744,0.013333 -0.243465,0.030378 -0.34121,0.048847 -0.09774,0.018474 -0.17251,0.038377 -0.203347,0.057434 -0.03635,0.022468 -0.05788,0.2411536 -0.05788,0.5878099 v 0.5520339 l 0.353449,-0.032556 C 22.76552,4.7669488 24.810768,4.675426 25.236,4.678891 c 0.318458,0.00258 0.244751,0.00806 -1.073438,0.3612732 -1.00528,0.269364 -0.237907,1.0928834 -0.550291,1.0928834 -0.301216,0 0.293934,-1.0319883 -0.442871,-0.834562 -0.403466,0.1081083 -0.82569,0.2395057 -1.088263,0.3459874 -0.08423,0.034159 -0.09164,0.1567556 -0.09164,1.518297 0,1.6829851 0.04422,1.5429571 -0.488639,1.5473931 -0.177642,0.0015 -0.484044,0.02058 -0.680893,0.04245 -0.290109,0.03263 -0.03941,0.4834917 -0.178954,0.4834917 -0.139544,0 0.160473,-0.4821697 -0.178955,-0.4437307 z m 26.961904,0.05147 C 46.546646,8.3744054 46.006193,7.6284697 45.841255,6.4034993 45.814145,6.2021696 45.775595,6.1422036 45.576444,5.9915726 45.448248,5.8946126 45.34336,5.7944661 45.34336,5.7690299 c 0,-0.025436 0.08079,-0.046247 0.179529,-0.046247 0.212662,0 0.344098,-0.1135488 0.344098,-0.2972683 0,-0.2533792 0.167283,-0.7783866 0.376171,-1.1805865 0.772255,-1.4869309 2.475462,-1.9756833 4.03289,-1.1572785 0.348621,0.183195 0.937506,0.6592272 0.879589,0.7110268 -0.129952,0.1162228 -1.267484,0.9292125 -1.300155,0.9292125 -0.02342,0 -0.205852,-0.1308223 -0.405387,-0.2907159 -0.77856,-0.6238823 -1.56695,-0.8808287 -2.089875,-0.6811204 -0.488353,0.1865038 -0.779415,0.7401592 -0.74955,1.4257901 l 0.01558,0.3576702 0.287996,-0.00893 c 0.158397,-0.00491 0.653227,-0.033841 1.099619,-0.064292 1.053931,-0.071887 3.778162,-0.1788021 3.906417,-0.1533124 0.05464,0.010857 -0.407268,0.1225182 -1.026461,0.2481323 -0.619188,0.1256145 -1.39678,0.2960247 -1.727974,0.3786898 -0.744992,0.185949 -2.094512,0.6163677 -2.094512,0.6680297 0,0.09215 0.507754,0.5336087 0.781649,0.6795937 0.940478,0.5012687 1.960196,0.3954557 3.201822,-0.332243 0.173742,-0.1018267 0.33564,-0.1851387 0.359776,-0.1851387 0.02411,0 0.06022,0.0648 0.08021,0.143998 0.03101,0.1229437 0.0074,0.1690577 -0.161546,0.3153937 -0.597424,0.5174937 -1.629542,1.1096414 -2.298301,1.3185841 -0.475119,0.148443 -1.211541,0.187228 -1.579644,0.08319 z"
       id="path915"
       sodipodi:nodetypes="cssccscccssscssscscscssscccssscssscccsssccsccsssssscsssscsssssssssscsscssccsscscssscscssssscsssscccsssscsssccsssssssscsscccsssssssssscssscssssssssssssssssssssssssscsssssssssssssssssssssscssscsssssssssssssscsssccscscssscscccssssssscssscscsscscscssssssscsssccccscsssssscsssccccccssscccsscssscccsscssscscccsscscsscccsscccsccccccssscsssscssssssssssssssscscssssscczccssssssssssssscssssssssssssss" />
    <rect
       style="fill:none;stroke:#000000;stroke-width:0.793344;stroke-opacity:1;paint-order:markers fill stroke;stop-color:#000000"
       id="rect833-0"
       width="58.711929"
       height="36.248322"
       x="65.841957"
       y="82.97448" />
    <text
       xml:space="preserve"
       style="font-style:normal;font-variant:normal;font-weight:normal;font-stretch:normal;font-size:12.7px;line-height:1.05;font-family:Marlett;-inkscape-font-specification:Marlett;letter-spacing:0px;word-spacing:0px;fill:#000000;fill-opacity:1;stroke:none;stroke-width:1.16424"
       x="95.306442"
       y="97.626617"
       id="text851-9"><tspan
         sodipodi:role="line"
         id="tspan849-0"
         x="95.306442"
         y="97.626617"
         style="font-style:normal;font-variant:normal;font-weight:normal;font-stretch:normal;font-size:12.7px;font-family:Andalus;-inkscape-font-specification:Andalus;text-align:center;text-anchor:middle;stroke-width:1.16424">Confir-</tspan><tspan
         sodipodi:role="line"
         x="95.306442"
         y="114.46773"
         style="font-style:normal;font-variant:normal;font-weight:normal;font-stretch:normal;font-size:12.7px;font-family:Andalus;-inkscape-font-specification:Andalus;text-align:center;text-anchor:middle;stroke-width:1.16424"
         id="tspan2081">mation</tspan></text>
    <circle
       style="fill:#ab1212;fill-opacity:1;stroke:none;stroke-width:0.79375;stroke-opacity:1;paint-order:markers fill stroke;stop-color:#000000"
       id="path950"
       cx="268.68112"
       cy="57.442402"
       r="5.8208332" />
    <path
       style="fill:none;stroke:#780f1e;stroke-width:1.31148;stroke-linecap:butt;stroke-linejoin:miter;stroke-miterlimit:3;stroke-dasharray:none;stroke-opacity:1;marker-end:url(#Arrow1Mend)"
       d="M 65.957499,57.442402 H 259.35313"
       id="path952"
       sodipodi:nodetypes="cc" />
    <path
       style="fill:none;stroke:#780f1e;stroke-width:1.31148;stroke-linecap:butt;stroke-linejoin:miter;stroke-miterlimit:3;stroke-dasharray:none;stroke-opacity:1;marker-end:url(#Arrow1Mend-1)"
       d="M 126.99812,101.09864 H 259.35314"
       id="path952-4"
       sodipodi:nodetypes="cc" />
    <path
       style="fill:none;stroke:#780f1e;stroke-width:1.31148;stroke-linecap:butt;stroke-linejoin:miter;stroke-miterlimit:3;stroke-dasharray:none;stroke-opacity:1;marker-end:url(#Arrow1Mend-1-7)"
       d="m 127.72891,87.736983 h 22.86265 v -23.4218"
       id="path952-4-3"
       sodipodi:nodetypes="ccc" />
    <path
       style="fill:none;stroke:#780f1e;stroke-width:1.31148;stroke-linecap:butt;stroke-linejoin:miter;stroke-miterlimit:3;stroke-dasharray:none;stroke-opacity:1;marker-end:url(#Arrow1Mend-1-7-5)"
       d="M 32.937997,78.396342 V 101.07005 H 62.53867"
       id="path952-4-3-8"
       sodipodi:nodetypes="ccc" />
    <rect
       style="fill:#ab1212;fill-opacity:1;stroke:#780f1e;stroke-width:0.877471;stroke-miterlimit:3;stroke-dasharray:none;stroke-opacity:1;paint-order:markers fill stroke;stop-color:#000000"
       id="rect1340"
       width="25.314943"
       height="25.314943"
       x="-60.94342"
       y="82.249733"
       transform="rotate(-45)" />
    <text
       xml:space="preserve"
       style="font-style:normal;font-variant:normal;font-weight:normal;font-stretch:normal;font-size:8.46667px;line-height:1.25;font-family:Marlett;-inkscape-font-specification:Marlett;letter-spacing:0px;word-spacing:0px;fill:#000000;fill-opacity:1;stroke:none;stroke-width:1.16424"
       x="23.100132"
       y="98.712067"
       id="text851-9-9"><tspan
         sodipodi:role="line"
         id="tspan849-0-6"
         x="23.100132"
         y="98.712067"
         style="font-style:normal;font-variant:normal;font-weight:normal;font-stretch:normal;font-size:8.46667px;font-family:Andalus;-inkscape-font-specification:Andalus;stroke-width:1.16424">Botch</tspan></text>
    <text
       xml:space="preserve"
       style="font-style:normal;font-variant:normal;font-weight:normal;font-stretch:normal;font-size:8.46667px;line-height:1.25;font-family:Marlett;-inkscape-font-specification:Marlett;letter-spacing:0px;word-spacing:0px;fill:#000000;fill-opacity:1;stroke:none;stroke-width:1.16424"
       x="20.051222"
       y="107.47005"
       id="text851-9-9-2"><tspan
         sodipodi:role="line"
         id="tspan849-0-6-5"
         x="20.051222"
         y="107.47005"
         style="font-style:normal;font-variant:normal;font-weight:normal;font-stretch:normal;font-size:8.46667px;font-family:Andalus;-inkscape-font-specification:Andalus;stroke-width:1.16424">Critical</tspan></text>
    <path
       style="fill:none;stroke:#780f1e;stroke-width:1.31148;stroke-linecap:butt;stroke-linejoin:miter;stroke-miterlimit:3;stroke-dasharray:none;stroke-opacity:1;marker-end:url(#Arrow1Mend-1-7-5-2)"
       d="m 92.55176,122.30004 v 22.67371 h 29.60067"
       id="path952-4-3-8-3"
       sodipodi:nodetypes="ccc" />
    <rect
       style="fill:#ab1212;fill-opacity:1;stroke:#780f1e;stroke-width:0.877472;stroke-miterlimit:3;stroke-dasharray:none;stroke-opacity:1;paint-order:markers fill stroke;stop-color:#000000"
       id="rect1340-4"
       width="25.314943"
       height="25.314943"
       x="-49.343563"
       y="154.91658"
       transform="rotate(-45)" />
    <text
       xml:space="preserve"
       style="font-style:normal;font-variant:normal;font-weight:normal;font-stretch:normal;font-size:8.46667px;line-height:1.25;font-family:Marlett;-inkscape-font-specification:Marlett;letter-spacing:0px;word-spacing:0px;fill:#000000;fill-opacity:1;stroke:none;stroke-width:1.16424"
       x="82.685699"
       y="147.83405"
       id="text851-9-9-1"><tspan
         sodipodi:role="line"
         id="tspan849-0-6-6"
         x="82.685699"
         y="147.83405"
         style="font-style:normal;font-variant:normal;font-weight:normal;font-stretch:normal;font-size:8.46667px;font-family:Andalus;-inkscape-font-specification:Andalus;stroke-width:1.16424">Botch</tspan></text>
    <rect
       style="fill:none;stroke:#000000;stroke-width:0.793345;stroke-opacity:1;paint-order:markers fill stroke;stop-color:#000000"
       id="rect833-0-2"
       width="58.711929"
       height="36.248322"
       x="126.18501"
       y="128.42168" />
    <text
       xml:space="preserve"
       style="font-style:normal;font-variant:normal;font-weight:normal;font-stretch:normal;font-size:12.7px;line-height:1.25;font-family:Marlett;-inkscape-font-specification:Marlett;letter-spacing:0px;word-spacing:0px;fill:#000000;fill-opacity:1;stroke:none;stroke-width:1.16424"
       x="155.47586"
       y="141.95575"
       id="text851-9-4"><tspan
         sodipodi:role="line"
         id="tspan849-0-0"
         x="155.47586"
         y="141.95575"
         style="font-style:normal;font-variant:normal;font-weight:normal;font-stretch:normal;font-size:12.7px;font-family:Andalus;-inkscape-font-specification:Andalus;text-align:center;text-anchor:middle;stroke-width:1.16424">Fumble</tspan><tspan
         sodipodi:role="line"
         x="155.47586"
         y="161.33685"
         style="font-style:normal;font-variant:normal;font-weight:normal;font-stretch:normal;font-size:12.7px;font-family:Andalus;-inkscape-font-specification:Andalus;text-align:center;text-anchor:middle;stroke-width:1.16424"
         id="tspan1876">Roll</tspan></text>
    <circle
       style="fill:#ab1212;fill-opacity:1;stroke:none;stroke-width:0.79375;stroke-opacity:1;paint-order:markers fill stroke;stop-color:#000000"
       id="path950-0"
       cx="268.68112"
       cy="101.09864"
       r="5.8208332" />
    <path
       style="fill:none;stroke:#780f1e;stroke-width:1.31148;stroke-linecap:butt;stroke-linejoin:miter;stroke-miterlimit:3;stroke-dasharray:none;stroke-opacity:1;marker-end:url(#Arrow1Mend-1-8)"
       d="m 186.56009,146.54584 h 72.79305"
       id="path952-4-8"
       sodipodi:nodetypes="cc" />
    <circle
       style="fill:#ab1212;fill-opacity:1;stroke:none;stroke-width:0.793751;stroke-opacity:1;paint-order:markers fill stroke;stop-color:#000000"
       id="path950-0-4"
       cx="268.68097"
       cy="146.54584"
       r="5.8210001" />
  </g>
</svg>
